<svg width="102" height="102" viewBox="0 0 102 102" fill="none" xmlns="http://www.w3.org/2000/svg">
<circle cx="51" cy="51" r="51" fill="#363471"/>
<g clip-path="url(#clip0_4499_181)">
<path d="M59.7812 43.8769C66.5255 37.0357 64.6491 29.0158 60.4039 24.7919C55.6019 20.0146 47.9636 19.7117 42.7351 24.1086C37.0152 28.9189 36.797 35.9725 42.189 43.5618C41.0456 44.0912 40.1745 43.5501 39.2742 42.9866C36.1163 41.0107 31.61 43.1483 31.0649 46.8682C30.9312 47.7828 30.9726 48.7208 31.5012 49.482C32.2512 50.5618 32.3005 51.7287 32.2961 52.9648C32.2747 59.751 32.2839 66.5371 32.2888 73.3229C32.2888 73.8518 32.2668 74.3948 32.3747 74.9057C32.5313 75.6474 33.0374 76.1422 33.8177 76.1656C34.5863 76.189 35.1768 75.7716 35.3525 75.0245C35.5082 74.3631 35.538 73.6613 35.5399 72.9771C35.5546 67.9408 35.5424 62.9039 35.556 57.8676C35.5575 57.3037 35.4106 56.7134 35.843 55.9268C37.5656 58.4034 39.22 60.763 40.8504 63.1392C41.1901 63.6345 40.7753 63.86 40.4161 64.1342C37.753 66.1694 36.7614 69.8518 38.0766 72.9138C38.7744 74.5394 40.0896 75.4765 41.7815 75.8929C42.3979 76.0448 43.0313 76.1802 43.6628 76.2124C50.695 76.5718 57.7179 77.2502 64.7721 76.903C69.6253 76.6658 72.0566 74.124 71.999 69.2922C71.9756 67.3393 71.8902 65.3756 70.7575 63.6335C70.5555 63.3233 70.6277 62.8187 70.6184 62.4028C70.5696 60.1786 70.658 57.9436 70.473 55.7311C69.9484 49.464 66.6758 45.7003 60.5269 44.0965C60.3322 44.0459 60.1404 43.9831 59.7812 43.8764V43.8769ZM59.3015 73.6487C59.3015 73.6516 59.3015 73.6545 59.3015 73.657C57.3368 73.657 55.3706 73.617 53.4078 73.674C52.4509 73.7018 51.8374 73.3584 51.2977 72.5777C45.9028 64.7692 40.4854 56.9759 35.0578 49.1898C34.3126 48.1203 34.0403 47.2213 35.0997 46.0997C36.1812 44.9547 37.0103 45.2717 38.1156 46.0062C47.7069 52.3774 57.3124 58.7287 66.9549 65.0225C68.112 65.7779 68.7152 66.6268 68.6898 67.9734C68.6757 68.7141 68.7523 69.4583 68.7108 70.1967C68.582 72.493 67.5245 73.5586 65.1952 73.635C63.2324 73.6993 61.2662 73.6482 59.3015 73.6482V73.6487ZM51.2401 43.7712C45.793 43.7858 41.3833 39.425 41.3877 34.0278C41.3921 28.6676 45.7276 24.2289 51.0044 24.1821C56.5384 24.1334 61.0095 28.501 61.01 33.9567C61.01 39.4226 56.696 43.7566 51.2401 43.7712ZM67.3844 61.5189C66.3161 60.8195 65.6178 60.2443 64.8258 59.8659C62.4794 58.7443 61.2218 57.1132 61.7015 54.3625C61.8875 53.2964 61.4224 52.2376 60.158 52.1923C58.8989 52.1475 58.4519 53.1065 58.4739 54.2412C58.5012 55.658 57.8746 55.2445 57.1553 54.7687C54.3697 52.9282 51.5754 51.1014 48.7864 49.2663C47.8343 48.64 46.8885 48.0034 45.9399 47.3718C50.1704 47.0596 54.2872 47.0167 58.4026 47.0713C62.6356 47.1273 66.1327 50.0183 67.0857 54.1326C67.6191 56.4353 67.2722 58.7603 67.3844 61.5184V61.5189ZM45.1654 73.0263C40.9817 73.1388 40.3522 71.8199 40.9348 68.2339C41.0759 67.3651 41.7547 66.9005 42.5828 66.6891C43.4295 66.4724 43.6648 67.1976 44.0195 67.6841C44.7691 68.7122 45.5265 69.7393 46.1941 70.82C46.5913 71.4624 47.5874 72.0751 47.155 72.8129C46.8197 73.3847 45.7691 72.9347 45.1659 73.0267L45.1654 73.0263Z" fill="#04FFB4"/>
</g>
<defs>
<clipPath id="clip0_4499_181">
<rect width="41" height="56" fill="white" transform="matrix(-1 0 0 1 72 21)"/>
</clipPath>
</defs>
</svg>
