<svg width="102" height="102" viewBox="0 0 102 102" fill="none" xmlns="http://www.w3.org/2000/svg">
<circle cx="51" cy="51" r="51" fill="#363471"/>
<path d="M82.4197 45.9592C78.9397 45.9582 78.9076 45.9665 78.1081 42.693C76.4548 35.9224 72.7278 30.4448 67.1429 26.4619C58.0645 19.988 47.7533 18.8675 37.1454 25.2788C34.1961 27.061 31.9328 29.477 29.5774 31.8599C29.1973 32.2446 28.9736 32.7158 28.9395 33.2631C28.9105 33.7306 29.0694 34.119 29.5002 34.3323C29.9362 34.5477 30.3644 34.4447 30.6777 34.1019C31.2566 33.4686 31.7754 32.781 32.3538 32.1472C37.5896 26.4086 43.9703 23.0538 51.8583 23.2056C58.8521 23.3402 64.6228 26.4065 69.4631 31.2934C71.9708 33.8249 73.8788 36.8001 75.0925 40.1683C75.6212 41.6352 75.9842 43.1621 76.4144 44.6637C76.7003 45.6605 76.3394 46.0312 75.2898 45.9763C73.8628 45.9023 72.428 45.9297 70.9984 45.9686C69.3404 46.0136 68.8956 46.7887 69.7743 48.1443C72.0826 51.7057 74.4121 55.2535 76.7634 58.7864C77.6809 60.1648 78.3132 60.1694 79.2151 58.8123C81.5379 55.3177 83.8431 51.8102 86.1204 48.2862C87.1078 46.7587 86.6718 46.0017 84.8513 45.9629C84.0409 45.9453 83.2296 45.9598 82.4187 45.9592L82.4197 45.9592ZM77.9362 48.1112C79.5067 48.1112 81.0771 48.1024 82.647 48.1174C83.0628 48.1215 83.6997 48.1226 83.2643 48.7936C81.7388 51.1449 80.3134 53.5687 78.5001 55.7227C77.9999 56.3171 77.5691 56.2487 77.1569 55.602C75.7506 53.3962 74.351 51.1858 72.9023 49.0085C72.4342 48.3048 72.5921 48.1018 73.3678 48.1065C74.8906 48.1158 76.4134 48.1091 77.9362 48.1112Z" fill="#DDFE71"/>
<path d="M35.024 42.8239C35.445 46.5562 34.9003 50.466 35.1814 54.3665C35.3404 56.5738 36.2217 58.4963 37.279 60.3832C38.2276 62.0758 39.4656 63.3708 41.1707 64.4074C44.1811 66.2378 47.0403 68.3219 49.9166 70.3641C50.933 71.0858 51.7227 71.0253 52.75 70.3439C55.2794 68.6657 57.8331 67.0083 60.3661 65.3472C64.7539 62.4693 67.6524 58.4637 67.5043 52.8033C67.3925 48.5253 67.4598 44.2422 67.4945 39.9616C67.5023 38.9799 67.1735 38.3782 66.2715 37.9433C61.6813 35.7297 57.1061 33.4846 52.5449 31.2125C51.6958 30.7895 50.9734 30.7776 50.1201 31.2037C45.648 33.4375 41.1665 35.6552 36.6556 37.8097C35.5532 38.3357 35.0582 39.0156 35.1519 40.2391C35.2135 41.0391 35.0804 41.8536 35.025 42.8245L35.024 42.8239ZM65.4353 47.0087C65.4322 47.0087 65.4285 47.0097 65.4254 47.0103C65.4254 48.8639 65.4068 50.7181 65.429 52.5718C65.4767 56.4982 64.0388 59.7856 60.9269 62.1514C58.1236 64.2826 55.1225 66.1524 52.2291 68.1666C51.5818 68.617 51.077 68.6051 50.4272 68.1521C47.6109 66.1891 44.7118 64.3422 41.9406 62.3181C39.3791 60.4474 37.7248 57.905 37.366 54.6994C36.8725 50.2889 37.2867 45.853 37.135 41.4306C37.0983 40.3629 37.6088 39.7032 38.5983 39.2263C42.549 37.3209 46.4718 35.3569 50.3873 33.379C51.0552 33.0414 51.5906 33.0553 52.2555 33.3867C56.3512 35.4289 60.466 37.4327 64.5788 39.4412C65.1313 39.711 65.4756 40.0113 65.456 40.7336C65.3985 42.8239 65.4358 44.9174 65.4358 47.0092L65.4353 47.0087Z" fill="#DDFE71"/>
<path d="M29.488 55.8182C30.3465 55.8182 31.2106 55.8818 32.0619 55.8026C33.2544 55.6923 33.6764 54.9229 33.0286 53.9168C30.6038 50.1494 28.1319 46.412 25.6517 42.6808C24.9956 41.6939 24.2303 41.7928 23.6111 42.7264C21.1863 46.3835 18.7641 50.0422 16.3941 53.7351C15.5729 55.0151 16.0602 55.7912 17.6322 55.8275C19.2534 55.8648 20.8766 55.8668 22.4973 55.8311C23.391 55.8114 23.9166 56.0646 24.0724 57.0458C24.7424 61.2653 26.666 65.0016 28.7506 68.6484C29.2757 69.5665 29.9705 70.4405 30.8358 71.1359C31.3903 71.5817 31.8729 72.1186 32.3793 72.6235C37.9155 78.1436 44.6162 80.834 52.4084 80.7429C55.9433 80.7015 59.2577 79.6204 62.4493 78.1649C66.5575 76.2915 69.891 73.4292 72.7699 69.9983C73.0148 69.7068 73.2323 69.3909 73.4492 69.0777C73.8277 68.5309 73.8515 67.9696 73.2965 67.559C72.7305 67.1401 72.2122 67.3886 71.7959 67.8764C71.4863 68.2389 71.1999 68.6215 70.8872 68.9814C65.4017 75.2963 58.6244 78.9255 50.113 78.576C44.5432 78.3476 39.6749 76.1103 35.4197 72.5603C30.7659 68.6774 27.7534 63.7719 26.4009 57.8484C25.9406 55.8332 25.9054 55.8409 27.9134 55.8389C28.4379 55.8383 28.9629 55.8389 29.4874 55.8389C29.4874 55.8316 29.4874 55.8244 29.4874 55.8176L29.488 55.8182ZM24.6296 53.6895C23.1523 53.6895 21.6745 53.6745 20.1973 53.6952C19.3605 53.7071 18.9795 53.5363 19.5651 52.6633C21.078 50.4083 22.5729 48.1409 24.0502 45.8621C24.454 45.2387 24.7435 45.0057 25.2452 45.7922C26.7313 48.1217 28.2473 50.4326 29.78 52.7321C30.318 53.5394 29.9835 53.702 29.2047 53.6937C27.6798 53.6781 26.1544 53.689 24.6296 53.6895Z" fill="#DDFE71"/>
<path d="M48.4583 55.463C48.3869 56.2723 48.5277 56.6488 49.0129 56.8176C49.4851 56.9822 49.9609 57.0252 50.3534 56.6472C50.5196 56.4877 50.6263 56.262 50.7433 56.0569C51.1306 55.3781 50.8427 54.1934 51.7587 53.9982C52.8518 53.7657 54.0416 53.8263 55.1663 53.9589C56.0626 54.0645 55.9512 55.0322 56.1723 55.6759C56.4162 56.3857 56.6632 57.0977 57.6289 56.8688C58.4951 56.6633 58.7716 56.0585 58.5184 55.2311C57.3752 51.4911 56.2246 47.7527 55.0648 44.0179C54.8458 43.3121 54.342 42.8989 53.5927 42.8585C52.9708 42.8249 52.3521 43.0682 52.1693 43.6331C50.865 47.6698 49.6223 51.7262 48.4578 55.4636L48.4583 55.463ZM53.6067 51.9291C52.2584 51.9312 52.1217 51.8691 52.1279 51.286C52.1398 50.1479 53.3317 48.1291 53.8014 48.4258C54.7469 49.0228 54.7287 50.2241 54.8794 51.198C55.0368 52.2186 54.0644 51.8049 53.6072 51.9291L53.6067 51.9291Z" fill="#DDFE71"/>
<path d="M44.9587 50.0359C44.9587 51.8492 44.9644 53.6619 44.9556 55.4752C44.9519 56.2333 45.1937 56.8344 46.0258 56.8945C46.8967 56.9571 47.1018 56.3115 47.2354 55.598C47.415 54.6349 47.123 53.7008 47.1334 52.747C47.1634 49.9851 47.1422 47.2222 47.1417 44.4603C47.1417 43.7556 47.0966 43.0587 46.1537 43.0349C45.1968 43.0105 44.9581 43.6427 44.9587 44.4536C44.9597 46.3145 44.9587 48.1749 44.9587 50.0359Z" fill="#DDFE71"/>
</svg>
