<svg width="102" height="102" viewBox="0 0 102 102" fill="none" xmlns="http://www.w3.org/2000/svg">
<circle cx="51" cy="51" r="51" fill="#363471"/>
<g clip-path="url(#clip0_4499_157)">
<path d="M41.3413 77.1174C41.3413 77.8277 41.4482 78.4779 41.302 79.0651C41.2127 79.4263 40.7336 79.6925 40.4304 80.0002C40.1218 79.6965 39.8092 79.3969 39.5114 79.0838C39.4695 79.041 39.4857 78.9273 39.5006 78.8511C40.088 75.67 37.9063 73.8948 35.868 72.1518C34.0219 70.5719 31.9823 69.2115 30.0361 67.7453C29.6219 67.4337 29.2295 67.0899 28.8464 66.7407C24.7307 62.971 23.9159 61.2802 26.4116 54.8003C26.6755 54.1154 26.8731 53.6311 26.2898 52.997C26.076 52.7643 26.1057 52.0312 26.3196 51.7409C28.9872 48.121 31.5925 44.4463 34.4591 40.983C36.3025 38.7557 39.1013 37.7979 41.7568 36.7558C42.1966 36.5832 42.6365 36.4147 42.9315 36.301C42.7123 34.9004 42.5445 33.6189 42.2941 32.3547C42.2156 31.9574 41.9002 31.6096 41.7189 31.227C40.9785 29.6659 40.1015 28.1476 39.5642 26.5196C39.165 25.313 39.6941 24.9638 40.9758 24.8688C41.5565 24.826 42.2724 24.5558 42.6487 24.1425C46.4829 19.922 50.4539 20.6122 55.2207 22.3967C57.2332 23.1499 57.6812 25.1819 57.6812 27.0828C57.6812 28.9703 57.3279 30.8578 57.1222 32.7453C57.0586 33.3312 56.9693 33.9145 56.8813 34.5686C57.2278 34.6716 57.5201 34.7746 57.8206 34.8469C61.755 35.79 65.4485 37.3324 68.7874 39.5704C69.9676 40.3609 71.1356 41.506 71.7284 42.7581C73.5934 46.6964 75.1837 50.7617 76.8782 54.7775C77.2626 55.6885 76.6508 56.1982 75.9822 56.4497C73.7437 57.2871 71.4929 58.1205 69.1907 58.7532C68.223 59.0194 67.8887 59.3659 67.8468 60.3157C67.7371 62.8105 67.5287 65.3 67.3758 67.7922C67.3528 68.1667 67.4083 68.5466 67.4421 69.2115C69.793 67.0043 72.7042 65.601 73.1224 62.1992C73.2375 61.2588 73.1075 60.2836 73.2686 59.3539C73.3417 58.9311 73.8519 58.5833 74.1646 58.2021C74.4691 58.5914 75.001 58.9579 75.0429 59.3726C75.4084 63.0165 74.3013 66.0906 71.2818 68.3834C70.2004 69.2048 69.1285 70.0516 68.1526 70.988C67.7547 71.3706 67.4286 72.014 67.4056 72.5544C67.3189 74.5744 67.3636 76.601 67.3744 78.6237C67.3785 79.3126 67.2919 79.9921 66.4297 79.9801C65.5676 79.9681 65.5243 79.2738 65.5135 78.5942C65.3835 71.0134 65.6001 63.4473 66.316 55.8918C66.5245 53.6859 66.4446 51.4533 66.4785 49.2327C66.4893 48.5317 66.4636 47.7465 67.4137 47.7505C68.3624 47.7545 68.353 48.5451 68.3367 49.2421C68.2853 51.5015 68.2311 53.7622 68.1811 56.0216C68.1743 56.3279 68.1811 56.6343 68.1811 57.2617C70.559 56.5313 72.7435 55.8611 75.0673 55.1481C73.3633 50.6252 71.9801 46.2763 69.3789 42.4638C68.9512 41.8364 68.2433 41.3428 67.572 40.9375C63.7459 38.6246 59.7086 36.7906 55.1976 36.2943C51.8763 35.9291 48.6511 36.6394 45.4652 37.4915C44.5773 37.7283 43.7111 38.048 42.8341 38.3276C38.7698 39.6185 35.4525 41.8766 33.0556 45.4416C31.5032 47.7505 29.7911 49.9564 27.9518 52.4807C30.028 54.2184 32.0581 55.9199 34.0923 57.6175C34.1519 57.667 34.2642 57.7459 34.298 57.7259C35.3063 57.0971 36.339 56.4992 37.2891 55.7929C37.5314 55.6136 37.6803 55.0303 37.5787 54.7294C37.0847 53.2659 36.5109 51.8279 35.9235 50.3992C35.6623 49.7651 35.4187 49.1337 36.2172 48.7765C37.0414 48.4073 37.3595 49.0628 37.6261 49.6594C39.3653 53.5549 40.6321 57.5894 41.2953 61.8019C41.344 62.1136 41.4455 62.4921 41.321 62.7383C41.118 63.1396 40.7471 63.4566 40.4467 63.8098C40.1313 63.47 39.6292 63.1744 39.5358 62.7838C39.1568 61.2079 38.9078 59.6027 38.6019 58.0094C38.5681 57.8315 38.4801 57.663 38.3867 57.4075C36.9846 58.4268 35.6555 59.3913 34.1573 60.4802C34.321 60.622 34.6026 60.931 34.9423 61.1504C38.629 63.5382 41.8583 66.425 44.7397 69.7158C46.062 71.2261 46.5465 72.8461 45.8184 74.7644C45.0564 76.7696 43.477 77.3261 41.344 77.1201L41.3413 77.1174ZM28.2766 55.3233C26.0854 59.0408 26.4658 61.9664 29.488 64.8305C29.9793 65.296 30.4922 65.7415 31.016 66.1735C34.2913 68.8784 38.1106 70.9559 40.6646 74.4995C41.2492 75.3101 42.2454 75.6432 43.2496 75.1162C44.2484 74.5918 44.3323 73.5751 44.2701 72.6294C44.2403 72.1665 43.9033 71.6702 43.5839 71.2849C40.5617 67.6397 37.0847 64.5027 32.9338 62.1443C31.6277 61.4019 31.5966 61.331 32.1908 59.9237C32.3505 59.5438 32.498 58.8576 32.3058 58.6823C31.0173 57.5078 29.6355 56.4336 28.278 55.322L28.2766 55.3233ZM41.501 27.1724C41.8759 27.8841 42.3239 28.7496 42.7854 29.6057C43.0831 30.1582 43.4404 30.2211 44.0549 29.9415C45.5139 29.278 46.5222 29.6244 47.5075 30.8939C47.7525 31.211 48.1598 31.6524 48.4671 31.6337C50.4891 31.5106 52.5084 31.31 54.5169 31.0518C54.8823 31.005 55.3871 30.6344 55.5008 30.304C56.0841 28.6064 56.0327 26.8861 55.4372 25.1805C54.9676 23.8361 53.6872 23.8254 52.6234 23.4522C52.3595 23.3599 52.0821 23.3077 51.8127 23.2328C48.9123 22.4315 46.3706 22.873 44.2417 25.1631C43.5622 25.8935 42.6094 26.3738 41.4996 27.1724H41.501ZM55.1354 33.2282C52.8048 33.3179 50.5513 33.4356 48.2965 33.4757C47.2693 33.4931 46.3165 33.2938 45.9835 32.0537C45.9158 31.8022 45.2906 31.4504 45.0916 31.5347C44.7208 31.6912 44.2606 32.1139 44.2254 32.4657C44.1577 33.1105 44.3432 33.7901 44.4745 34.4442C44.6612 35.3739 45.0889 35.6468 46.1662 35.4408C48.7093 34.9539 51.293 34.6181 53.8754 34.4108C54.9892 34.3212 55.2734 33.9693 55.1354 33.2282Z" fill="#04FFB4"/>
<path d="M50.0848 69.6794C49.7599 69.4132 49.3458 69.238 49.2795 68.9758C49.1996 68.6628 49.3052 68.0782 49.5258 67.9551C50.8846 67.1966 52.2827 66.501 53.7092 65.8763C53.9353 65.7773 54.4847 66.0676 54.6756 66.3271C54.8218 66.5251 54.7541 67.1592 54.5808 67.2595C53.1367 68.0956 51.6453 68.8541 50.0861 69.6781L50.0848 69.6794Z" fill="#04FFB4"/>
<path d="M71.2181 37.2241C71.3941 36.9111 71.4712 36.673 71.6282 36.5138C72.5459 35.5814 73.4391 34.6155 74.4393 33.7781C74.7073 33.5547 75.3258 33.7407 75.7833 33.738C75.7643 34.1621 75.9186 34.7346 75.698 34.9848C74.8088 35.9921 73.8262 36.9244 72.8247 37.8247C72.6176 38.0107 72.1317 38.0642 71.8597 37.9598C71.5876 37.8555 71.4239 37.4769 71.2168 37.2241H71.2181Z" fill="#04FFB4"/>
<path d="M26.8921 34.2832C27.2101 34.4558 27.451 34.5307 27.6134 34.6859C28.5568 35.5928 29.5326 36.4771 30.3785 37.467C30.6045 37.7318 30.4177 38.3432 30.4191 38.7953C29.99 38.7766 29.4108 38.9291 29.1577 38.711C28.1386 37.8322 27.1966 36.8596 26.2857 35.8697C26.0976 35.6651 26.0421 35.1848 26.1477 34.9173C26.2532 34.6484 26.6363 34.4865 26.8907 34.2832H26.8921Z" fill="#04FFB4"/>
<path d="M49.0664 60.1019C49.7526 60.1206 50.3007 60.8992 49.8933 61.3527C48.8404 62.5259 47.6818 63.6094 46.5084 64.6675C46.369 64.7933 45.7776 64.6395 45.5854 64.4388C45.3946 64.2381 45.2727 63.6602 45.4108 63.5131C46.4908 62.3613 47.6372 61.2724 48.7741 60.1728C48.8458 60.1033 48.9987 60.1153 49.0664 60.1006V60.1019Z" fill="#04FFB4"/>
<path d="M53.9543 76.2474C52.402 75.8608 51.1067 75.5999 49.8643 75.1866C49.5503 75.0822 49.1673 74.4268 49.2444 74.1365C49.3243 73.8368 49.9671 73.4395 50.2947 73.4944C51.5872 73.7111 52.8716 74.0308 54.1154 74.4442C54.4294 74.5485 54.7853 75.1692 54.7407 75.5036C54.6974 75.8207 54.1574 76.0735 53.9557 76.2487L53.9543 76.2474Z" fill="#04FFB4"/>
<path d="M35.8113 34.2703C35.4215 34.6823 35.2293 35.0488 34.9518 35.1331C34.6744 35.2161 34.1614 35.1238 34.0072 34.9204C33.2479 33.9158 32.54 32.8657 31.8958 31.7848C31.7726 31.5788 31.9324 31.0839 32.1245 30.8578C32.2829 30.6705 32.8662 30.5341 32.9474 30.6304C33.9165 31.7902 34.8273 32.9995 35.8113 34.2716V34.2703Z" fill="#04FFB4"/>
<path d="M70.3848 31.4458C70.1303 31.8739 69.9476 32.2177 69.7324 32.5387C69.2046 33.3253 68.7133 34.1453 68.0948 34.8556C67.8931 35.0871 67.1663 35.2075 66.9931 35.0469C66.7305 34.8048 66.5235 34.156 66.6737 33.8831C67.2408 32.8517 67.9229 31.8739 68.6497 30.9428C68.827 30.7167 69.367 30.6177 69.6837 30.6927C69.949 30.7555 70.1317 31.1568 70.3848 31.4471V31.4458Z" fill="#04FFB4"/>
</g>
<defs>
<clipPath id="clip0_4499_157">
<rect width="52" height="59" fill="white" transform="translate(25 21)"/>
</clipPath>
</defs>
</svg>
