<svg width="102" height="102" viewBox="0 0 102 102" fill="none" xmlns="http://www.w3.org/2000/svg">
<circle cx="51" cy="51" r="51" fill="#363471"/>
<g clip-path="url(#clip0_4499_155)">
<path d="M47.8095 76.9988C45.1577 76.9988 42.5058 77.0015 39.854 76.9988C36.9895 76.9946 35.014 75.0076 35.0113 72.1291C35.0086 70.324 35.0044 68.5189 35.0127 66.7137C35.025 64.1171 37.0156 62.094 39.5824 62.0773C41.754 62.0635 43.9271 62.0593 46.0988 62.0843C46.6653 62.0912 46.8862 61.9052 46.8547 61.3275C46.8204 60.7041 46.8492 60.0778 46.8464 59.453C46.8423 58.5282 46.8272 58.5088 45.9355 58.5074C43.901 58.5046 41.8652 58.5226 39.8307 58.5004C37.4779 58.4754 35.6753 57.0772 35.1183 54.8999C35.0305 54.5583 35.0099 54.2167 35.0099 53.8682C35.0099 52.0631 35.0086 50.258 35.0099 48.4528C35.0127 45.6257 36.8057 43.6526 39.5906 43.5276C41.348 43.4499 43.1108 43.4971 44.8709 43.5151C45.6474 43.5235 46.0796 43.9387 46.0576 44.5621C46.037 45.1717 45.6433 45.4855 44.86 45.4883C43.2137 45.4952 41.5675 45.4827 39.9212 45.4952C38.9403 45.5022 38.0719 45.7882 37.4615 46.6311C37.1103 47.1157 36.969 47.66 36.9717 48.2598C36.9799 50.0872 36.9635 51.9159 36.9786 53.7446C36.9909 55.3345 38.0692 56.494 39.6386 56.5009C45.1028 56.5259 50.5669 56.5273 56.0311 56.5009C57.6773 56.4926 58.7405 55.3165 58.7447 53.6419C58.7488 52.2533 58.7447 50.8648 58.7543 49.4762C58.7611 48.6292 59.126 48.1807 59.7681 48.1932C60.3827 48.2057 60.7202 48.6361 60.7256 49.4582C60.7352 50.8231 60.7311 52.1881 60.7284 53.5544C60.7215 56.4162 58.7392 58.4629 55.909 58.4963C53.8293 58.5213 51.7481 58.5213 49.6684 58.4907C49.0263 58.481 48.7478 58.6629 48.8 59.3502C48.8507 60.0167 48.8384 60.693 48.8027 61.3622C48.7725 61.9121 48.9783 62.0857 49.5133 62.0787C51.685 62.0551 53.8567 62.0662 56.0297 62.0704C58.7021 62.076 60.716 64.1032 60.7284 66.8054C60.7366 68.6105 60.7394 70.4156 60.727 72.2207C60.7078 74.9479 58.6747 76.9863 55.9707 76.9918C53.2503 76.9974 50.5299 76.9918 47.8081 76.9918L47.8095 76.9988ZM47.8493 64.0658C45.1302 64.0658 42.4098 64.0533 39.6908 64.0699C38.0349 64.081 36.9978 65.1322 36.9799 66.8054C36.9607 68.6091 36.9621 70.4142 36.9799 72.218C36.995 73.8981 38.0815 74.9895 39.7443 74.9923C45.1604 75.0006 50.5765 75.0006 55.9927 74.9937C57.6403 74.9923 58.7433 73.8676 58.7501 72.2055C58.7584 70.4712 58.7543 68.7355 58.7515 67.0012C58.7474 65.1363 57.7048 64.0685 55.8706 64.0644C53.1968 64.0588 50.523 64.063 47.8493 64.0644V64.0658Z" fill="#04FFB4"/>
<path d="M55.2062 25.003C59.5907 25.214 62.9971 27.1483 64.9959 31.1459C66.9631 35.0797 66.6298 38.9843 64.1618 42.6376C63.7653 43.2236 63.7351 43.5832 64.2825 44.0095C64.5157 44.1914 64.7146 44.4219 64.9149 44.6441C65.4898 45.2828 66.0124 45.8008 67.0578 45.5175C67.9303 45.2814 68.7178 45.8716 69.3557 46.5172C71.279 48.4626 73.201 50.4094 75.1244 52.3561C76.1259 53.3698 77.1452 54.364 78.1233 55.3998C79.2812 56.6273 79.288 58.4352 78.1796 59.51C77.0107 60.6444 75.3439 60.6222 74.1284 59.4016C71.1926 56.4537 68.2856 53.4739 65.3457 50.5316C64.5006 49.6859 64.1933 48.7209 64.4567 47.5712C64.5418 47.2004 64.4293 46.9533 64.181 46.7089C63.6569 46.1937 63.1301 45.6772 62.6308 45.1384C62.355 44.8399 62.1589 44.8454 61.8296 45.094C57.5425 48.3293 51.8835 48.1849 47.8818 44.5566C44.4178 41.4157 43.2888 37.4014 44.6606 32.9025C46.0174 28.4577 49.1549 25.9014 53.6958 25.1349C54.1924 25.0516 54.6904 24.9849 55.2062 25.003ZM64.24 36.1808C64.2235 31.0293 60.1751 26.9983 55.0347 27.0178C50.1207 27.0358 46.0339 31.2445 46.0696 36.2503C46.1066 41.2893 50.2154 45.4106 55.2048 45.412C60.1655 45.412 64.2564 41.2338 64.24 36.1822V36.1808ZM77.0093 57.4729C77.0093 57.1175 76.8063 56.8703 76.5758 56.637C73.7018 53.7266 70.8291 50.8148 67.9509 47.9086C67.4282 47.3809 66.9714 47.3393 66.5749 47.742C66.2196 48.103 66.2923 48.6487 66.7711 49.1347C69.6273 52.0298 72.4849 54.9249 75.3466 57.8159C75.5058 57.977 75.6786 58.1464 75.8789 58.2422C76.4291 58.506 77.0244 58.0881 77.0093 57.4729Z" fill="#04FFB4"/>
<path d="M43.0499 25.0163C44.2146 25.0163 45.3793 25.0121 46.544 25.0163C47.4357 25.0204 47.9214 25.3884 47.9022 26.023C47.8816 26.6714 47.4261 27.0102 46.5193 27.0144C44.3038 27.0227 42.0882 27.0144 39.8726 27.02C38.0371 27.0241 36.9848 28.0836 36.9766 29.9415C36.9697 31.6758 36.9656 33.4087 36.9766 35.143C36.9876 36.887 38.0261 37.9284 39.756 37.952C40.2814 37.959 40.8082 37.9354 41.3309 37.9729C41.9922 38.0201 42.4312 38.4547 42.4216 38.9949C42.412 39.5628 41.9908 39.9418 41.2939 39.9335C40.0249 39.9169 38.7257 40.1265 37.5363 39.4545C35.9587 38.563 35.0381 37.2453 35.0148 35.3832C34.9915 33.4642 34.9997 31.5453 35.0121 29.6277C35.0299 27.131 37.0205 25.0788 39.4871 25.0204C40.6738 24.9927 41.8618 25.0163 43.0499 25.0149V25.0163Z" fill="#04FFB4"/>
<path d="M57.9854 33.422C57.9854 34.555 57.9923 35.6895 57.9827 36.8225C57.9758 37.7306 57.6219 38.1056 56.7507 38.1167C55.6999 38.1305 54.6476 38.1305 53.5968 38.1139C52.7188 38.1 52.3498 37.7334 52.3429 36.8281C52.3278 34.5606 52.3264 32.2931 52.3429 30.0269C52.3498 29.0827 52.7078 28.7564 53.6585 28.7509C54.6874 28.7439 55.7163 28.7425 56.7439 28.7509C57.6493 28.7592 57.973 29.0897 57.9813 30.0186C57.9923 31.1517 57.984 32.2861 57.984 33.4192L57.9854 33.422ZM54.2992 33.3734C54.2992 34.0899 54.3239 34.8063 54.2923 35.5201C54.2621 36.1824 54.6902 36.1366 55.1086 36.1185C55.5119 36.1019 56.0236 36.2768 56.014 35.5409C55.9948 34.1551 55.9866 32.7693 56.0181 31.3849C56.0332 30.699 55.6148 30.7295 55.1621 30.7365C54.7272 30.7434 54.2594 30.6601 54.2937 31.3655C54.3252 32.0334 54.3006 32.7041 54.3006 33.3747L54.2992 33.3734Z" fill="#04FFB4"/>
<path d="M55.1564 38.9082C56.66 38.9013 57.9592 40.1982 57.9825 41.7284C58.0058 43.2475 56.7135 44.593 55.2182 44.6055C53.7064 44.618 52.3852 43.3322 52.3551 41.8186C52.3235 40.2496 53.6076 38.9166 55.155 38.9096L55.1564 38.9082ZM56.0042 41.777C55.9576 41.2618 55.7093 40.9327 55.1893 40.923C54.6694 40.9133 54.3649 41.2521 54.3388 41.7353C54.3113 42.2505 54.6735 42.5671 55.1523 42.5851C55.6448 42.6032 55.9356 42.2755 56.0042 41.777Z" fill="#04FFB4"/>
</g>
<defs>
<clipPath id="clip0_4499_155">
<rect width="44" height="52" fill="white" transform="translate(35 25)"/>
</clipPath>
</defs>
</svg>
