<svg width="102" height="102" viewBox="0 0 102 102" fill="none" xmlns="http://www.w3.org/2000/svg">
<circle cx="51" cy="51" r="51" fill="#363471"/>
<g clip-path="url(#clip0_4499_156)">
<path d="M50.673 34.4106C49.0363 34.4916 47.0209 34.2475 45.0236 34.5372C44.2948 34.643 43.6956 34.5973 43.0121 34.2162C41.6219 33.4422 40.1953 33.5897 38.9567 34.6182C37.7778 35.597 37.3239 36.8839 37.6728 38.4096C37.7467 38.7345 37.8232 39.0373 37.6222 39.3467C36.276 41.4218 35.9933 43.758 36.0076 46.1568C36.0218 48.57 35.9518 50.9832 36.0685 53.3951C36.1334 54.7381 36.739 55.7169 37.9205 56.3108C39.447 57.0782 40.9838 57.8273 42.5336 58.5439C43.0705 58.7918 43.2975 59.1364 43.3636 59.725C44.2014 67.1734 45.0613 74.6205 45.9146 82.0676C46.0158 82.9524 46.1092 83.8386 46.2116 84.7235C46.4904 87.1315 48.4799 88.9587 50.8584 88.9978C53.2227 89.037 55.2822 87.3246 55.5869 84.9245C56.0707 81.1318 56.4688 77.3273 56.9033 73.5281C56.9085 73.485 56.9098 73.4419 56.9124 73.3976C56.9617 72.3339 57.0434 71.4908 58.4907 71.2624C60.0444 71.017 61.0197 69.46 61.0573 67.8964C61.0988 66.222 60.2026 64.8202 58.6541 64.2434C58.182 64.0672 58.0057 63.827 58.0666 63.3337C58.2235 62.0834 58.3584 60.8304 58.4907 59.5775C58.5348 59.1638 58.7501 58.9276 59.1184 58.7514C60.7201 57.9905 62.3062 57.1957 63.9079 56.4348C65.3332 55.7626 66.014 54.6611 65.9998 53.0714C65.9751 50.3541 66.0011 47.6356 65.9907 44.917C65.9687 39.023 61.3789 34.4237 55.5156 34.4106C54.0242 34.4067 52.534 34.4106 50.673 34.4106ZM51.0387 35.6322V35.6349C52.6378 35.6349 54.2369 35.6166 55.8359 35.6388C60.6682 35.7027 64.7029 39.7356 64.7716 44.6037C64.8118 47.4737 64.7729 50.345 64.7859 53.2163C64.7898 54.1377 64.4176 54.8099 63.594 55.2118C61.2829 56.3434 58.9719 57.4776 56.6517 58.5921C55.88 58.9628 55.1278 58.8532 54.4716 58.2959C53.8076 57.7334 53.6364 56.996 53.8283 56.1698C54.0021 55.4233 54.5533 55.0135 55.1992 54.7041C56.037 54.3009 56.8812 53.9106 57.7152 53.4982C59.0095 52.8587 59.6294 51.7937 59.6307 50.3541C59.632 48.7227 59.632 47.0913 59.6307 45.4612C59.6307 45.2876 59.6294 45.1114 59.5957 44.9418C59.5386 44.6585 59.37 44.4732 59.0639 44.4654C58.7669 44.4589 58.5555 44.6089 58.4868 44.8909C58.431 45.1193 58.4246 45.3633 58.4246 45.6009C58.4194 47.1879 58.4155 48.7762 58.422 50.3633C58.4259 51.3343 57.9953 52.0247 57.1315 52.4437C56.2159 52.8861 55.2899 53.3064 54.3834 53.7671C52.8699 54.5371 52.1592 56.2677 52.7078 57.7869C53.3122 59.4601 54.9203 60.3319 56.6569 59.8594C57.2392 59.7002 57.2833 59.9103 57.221 60.3776C57.0939 61.3251 56.95 62.2726 56.8825 63.2254C56.8449 63.7539 56.6711 64.0045 56.1511 64.1899C54.683 64.7119 53.7829 65.7847 53.626 67.36C53.4704 68.9275 54.0929 70.1713 55.4508 70.9779C55.858 71.2206 55.9566 71.4842 55.8995 71.9306C55.679 73.6547 55.4923 75.384 55.2912 77.1107C54.993 79.6792 54.7297 82.2516 54.3795 84.8136C54.1863 86.2296 53.3109 87.1811 51.9582 87.6026C50.5459 88.0425 49.3255 87.647 48.3035 86.5768C47.5241 85.7611 47.4255 84.7235 47.3088 83.682C46.7771 78.9522 46.2414 74.2237 45.7006 69.4952C45.3479 66.4086 44.9899 63.3219 44.6203 60.2366C44.5555 59.6937 44.7526 59.631 45.1974 59.8033C45.6449 59.9769 46.1092 60.0617 46.5955 59.9965C48.0389 59.8033 49.1478 58.814 49.4526 57.4345C49.7638 56.0263 49.1724 54.6245 47.8665 53.8858C46.9833 53.386 46.0508 52.9722 45.1274 52.5481C44.143 52.0952 43.6256 51.3826 43.6463 50.2576C43.6762 48.6275 43.6567 46.996 43.6463 45.3646C43.6437 44.9365 43.5906 44.4771 43.0264 44.4758C42.4376 44.4745 42.4454 44.947 42.4454 45.3711C42.4428 47.0456 42.448 48.7201 42.4428 50.3946C42.4389 51.9386 43.1898 52.9762 44.5477 53.6196C45.4075 54.0268 46.2739 54.4222 47.1181 54.8608C48.2101 55.4272 48.6148 56.5875 48.1168 57.6133C47.598 58.6835 46.4412 59.0881 45.3167 58.5517C43.0511 57.4723 40.7931 56.3786 38.5404 55.2732C37.7415 54.8803 37.2863 54.2395 37.2889 53.305C37.2967 50.3476 37.2863 47.3902 37.298 44.4315C37.3032 43.1472 37.6741 41.9491 38.1967 40.7875C38.4133 40.3059 38.6092 40.1963 39.0994 40.5474C40.4521 41.5158 42.1769 41.521 43.4129 40.644C44.7993 39.6599 45.3557 38.1146 44.868 36.3957C44.7202 35.8724 44.8875 35.721 45.3427 35.6897C45.6877 35.6662 46.0326 35.6362 46.3776 35.6349C47.9339 35.6296 49.4902 35.6322 51.0452 35.6322H51.0387ZM41.3352 40.0514C39.9009 40.0632 38.7713 38.9525 38.7648 37.526C38.7583 36.1582 39.8983 35.0032 41.2717 34.9862C42.6542 34.9692 43.8292 36.1282 43.8512 37.5299C43.872 38.8912 42.7255 40.041 41.3365 40.0514H41.3352ZM54.8114 67.7242C54.8179 66.3629 55.9799 65.1831 57.3196 65.1791C58.6917 65.1752 59.8576 66.3694 59.8473 67.7685C59.8369 69.1624 58.7021 70.3096 57.3403 70.3005C55.9202 70.29 54.8049 69.1546 54.8114 67.7255V67.7242Z" fill="#04FFB4"/>
<path d="M58.0578 24.2365C58.0448 24.059 58.0513 23.8149 58.002 23.5839C57.9294 23.238 58.0578 23.0305 58.3262 22.8126C59.9798 21.4644 60.339 19.401 59.2393 17.6964C58.168 16.035 56.1449 15.5469 54.2695 16.5075C54.0205 16.6341 53.8013 16.6876 53.5355 16.5701C49.8471 14.9348 46.1937 17.0073 44.6517 20.372C42.9722 24.0368 43.8385 28.469 46.7877 31.0336C49.3958 33.3006 53.4162 33.02 55.7234 30.4332C57.2848 28.6818 57.9722 26.6105 58.0578 24.2378V24.2365ZM50.8963 17.224C51.4254 17.2044 51.9286 17.3127 52.4318 17.4537C52.839 17.5672 52.9156 17.7239 52.7457 18.148C51.6355 20.9136 53.2761 23.4456 56.2149 23.5043C56.7116 23.5147 56.8491 23.6988 56.8413 24.1595C56.8166 25.8052 56.4431 27.3466 55.5236 28.7261C53.3332 32.0111 49.3517 32.2709 46.7708 29.303C44.5648 26.7658 44.4247 22.3949 46.4661 19.662C47.5762 18.1767 49.0028 17.2658 50.8963 17.224ZM53.6211 19.7546C53.6263 18.3164 54.691 17.2292 56.0969 17.2292C57.5118 17.2292 58.666 18.3816 58.6531 19.7807C58.6401 21.1798 57.5261 22.2918 56.1371 22.2957C54.6612 22.2983 53.6172 21.2438 53.6211 19.7546Z" fill="#04FFB4"/>
</g>
<defs>
<clipPath id="clip0_4499_156">
<rect width="30" height="73" fill="white" transform="matrix(-1 0 0 1 66 16)"/>
</clipPath>
</defs>
</svg>
