<svg width="84" height="84" viewBox="0 0 84 84" fill="none" xmlns="http://www.w3.org/2000/svg">
<circle cx="42" cy="42" r="42" fill="#363471"/>
<path d="M42.1921 58.721C41.8242 58.721 41.4898 58.5538 41.2557 58.2862C40.0518 56.9151 29.3838 44.7756 29.3838 38.0872C29.3838 31.031 35.1358 25.2789 42.1921 25.2789C49.2484 25.2789 55.0004 31.031 55.0004 38.0872C55.0004 44.7422 44.3324 56.9151 43.1285 58.2862C42.8944 58.5538 42.56 58.721 42.1921 58.721ZM42.1921 27.8205C36.5404 27.8205 31.9254 32.4355 31.9254 38.0872C31.9254 42.5016 38.6472 51.2968 42.1921 55.5105C45.7369 51.3303 52.4588 42.5016 52.4588 38.0872C52.4588 32.4355 47.8438 27.8205 42.1921 27.8205Z" fill="#04FFB4"/>
<path d="M42.1924 44.6751C38.6475 44.6751 35.7715 41.7991 35.7715 38.2542C35.7715 34.7094 38.6475 31.8334 42.1924 31.8334C45.7372 31.8334 48.6132 34.7094 48.6132 38.2542C48.6132 41.7991 45.7372 44.6751 42.1924 44.6751ZM42.1924 34.375C40.0521 34.375 38.3131 36.114 38.3131 38.2542C38.3131 40.3945 40.0521 42.1335 42.1924 42.1335C44.3326 42.1335 46.0716 40.3945 46.0716 38.2542C46.0716 36.114 44.3326 34.375 42.1924 34.375Z" fill="#04FFB4"/>
</svg>
