<svg width="84" height="84" viewBox="0 0 84 84" fill="none" xmlns="http://www.w3.org/2000/svg">
<circle cx="42" cy="42" r="42" fill="#363471"/>
<path fill-rule="evenodd" clip-rule="evenodd" d="M26.9756 32.3415L27.1707 32.122C27.8859 31.3741 28.9512 31 30.3659 31H54.6098C55.9429 31 56.9673 31.3254 57.6829 31.9756L57.7073 32C57.8537 32.1302 58.0005 32.2844 58.1463 32.4634C58.1463 32.48 58.1546 32.4961 58.1707 32.5122L58.1951 32.5366C58.7322 33.2034 59 34.1463 59 35.3659V49.1707C58.9839 52.0976 57.5205 53.561 54.6098 53.561H30.3659C27.4551 53.5449 26 52.0815 26 49.1707V35.3659C26 34.0488 26.3254 33.0405 26.9756 32.3415ZM55.4146 33.3902C55.1707 33.3254 54.9024 33.3005 54.6102 33.3171H30.3659C30.1868 33.301 30.0161 33.3088 29.8537 33.3415L42.4146 46.0732L55.4146 33.3902ZM28.3171 35.0976C28.301 35.179 28.301 35.2683 28.3171 35.3659V49.1707C28.3171 50.5532 29 51.2439 30.3659 51.2439H54.6098C55.9917 51.2439 56.6829 50.5532 56.6829 49.1707V35.3902L43.2195 48.5366C42.9756 48.7644 42.6995 48.8781 42.3907 48.8781C42.0654 48.862 41.7888 48.7478 41.5615 48.5366L28.3171 35.0976Z" fill="#04FFB4"/>
<path fill-rule="evenodd" clip-rule="evenodd" d="M26.9756 32.3411C27.0083 32.2923 27.0488 32.2435 27.0975 32.1948C27.1141 32.1621 27.138 32.1377 27.1707 32.1216L26.9756 32.3411Z" fill="#04FFB4"/>
</svg>
