<svg width="105" height="102" viewBox="0 0 105 102" fill="none" xmlns="http://www.w3.org/2000/svg">
<ellipse cx="52.5" cy="51" rx="52.5" ry="51" fill="#363471"/>
<g clip-path="url(#clip0_4499_189)">
<path d="M48.8306 78.6956C46.8671 78.6956 44.9035 78.6804 42.9399 78.7064C42.4305 78.7129 42.2821 78.5449 42.293 78.0528C42.3225 76.8248 42.3301 75.5956 42.2897 74.3686C42.2723 73.831 42.4872 73.6522 42.9803 73.5568C44.7289 73.2197 46.4645 72.8251 48.1816 72.3526C50.539 71.7033 52.4884 70.5348 53.6 68.2597C54.1738 67.0848 54.5796 65.8502 54.9308 64.5961C55.509 62.5324 55.8101 60.4296 55.8395 58.2878C55.8483 57.6385 55.9072 56.9893 55.9039 56.34C55.9017 55.9726 56.0326 55.7894 56.3915 55.6854C58.0464 55.2073 59.4405 54.3348 60.442 52.9149C60.6503 52.6201 60.9296 52.6569 61.2165 52.6396C63.2652 52.5138 65.1142 51.8733 66.5454 50.3688C67.9723 48.8698 68.4763 47.0867 67.6658 45.1259C66.8705 43.202 65.2396 42.3739 63.2401 42.1918C61.9823 42.0769 60.7758 42.3512 59.6336 42.866C59.2289 43.0492 58.99 43.0091 58.8471 42.5788C58.8078 42.4595 58.7358 42.3512 58.6856 42.2352C58.4467 41.6878 58.4598 41.6694 59.0773 41.5718C60.3536 41.3691 61.6136 41.1014 62.8408 40.6939C67.0134 39.3097 67.9767 35.1215 65.7175 31.7907C64.2775 29.6673 62.1819 28.5953 59.6434 28.2983C58.5798 28.1737 57.537 28.2615 56.5006 28.4609C54.3898 28.8685 52.8429 30.0846 51.7488 31.8839C51.4826 32.3218 51.3429 32.3521 50.9415 31.9999C48.8416 30.1594 46.3762 29.5004 43.6446 30.0532C41.2829 30.5312 39.6934 32.3662 39.5822 34.7356C39.4851 36.7896 40.6982 38.6149 42.857 39.1905C45.9027 40.0023 48.6474 39.3498 50.971 37.1679C51.0724 37.0736 51.1324 36.8839 51.2982 36.9251C51.4629 36.9663 51.4411 37.1625 51.4749 37.2947C51.6822 38.1044 51.7673 38.9271 51.7542 39.7628C51.7488 40.1075 51.6375 40.2852 51.2709 40.3438C49.5812 40.6137 47.9143 40.98 46.3314 41.6499C46.0587 41.7658 45.8351 41.6564 45.5995 41.574C44.1715 41.0808 42.7195 40.8521 41.2043 41.083C38.0113 41.5686 35.8241 44.4864 36.291 47.6677C36.7874 51.0527 39.5964 53.2043 42.9148 52.6753C43.6413 52.5594 44.1268 52.6927 44.6995 53.175C47.0372 55.1423 49.819 55.9867 52.8462 56.1016C53.5902 56.1298 53.5945 56.1135 53.5891 56.8581C53.5629 60.2258 53.1069 63.5133 51.8033 66.6545C51.1629 68.1979 50.1157 69.2819 48.511 69.826C46.1809 70.6161 43.769 71.066 41.3647 71.5483C39.6378 71.8951 37.9011 72.2041 36.1285 72.2041C35.9463 72.2041 35.7641 72.2041 35.5841 72.1867C33.8409 72.022 33.0075 71.3543 32.5089 69.6786C31.9962 67.953 31.8664 66.1656 31.7268 64.3848C31.5915 62.6549 31.5948 60.9206 31.5948 59.1864C31.5948 58.1263 31.165 57.5909 30.1123 57.3556C29.1152 57.1324 28.0876 57.179 27.0796 57.0413C26.6989 56.9893 26.3258 56.9199 25.9658 56.792C25.3113 56.5611 25.1608 56.2024 25.4728 55.5715C25.7629 54.9851 26.1753 54.4757 26.5833 53.9674C27.4342 52.9095 28.3069 51.8678 29.149 50.8034C30.9871 48.4796 32.0878 45.8652 32.4969 42.918C32.9769 39.4701 33.8594 36.1133 35.4248 32.9754C38.1575 27.4962 42.6574 24.2131 48.5688 22.8268C53.3665 21.7017 58.0628 22.3011 62.5255 24.2868C67.9603 26.7039 71.0649 31.0157 72.23 36.755C73.1082 41.0808 72.626 45.3416 71.5209 49.5656C70.5686 53.2054 69.0075 56.6045 67.3614 59.9711C65.5429 63.69 64.0462 67.5173 63.3699 71.622C63.0197 73.7454 62.7819 75.8796 62.7732 78.0311C62.771 78.559 62.5888 78.7476 62.0739 78.6988C61.7674 78.6696 61.4554 78.6836 61.1478 78.6999C60.5369 78.7324 60.1049 79.1335 60.0492 79.7003C59.9914 80.2911 60.3536 80.794 60.9645 80.9284C61.2099 80.9826 61.4696 80.9956 61.7227 80.9956C63.9775 81 66.2313 80.9989 68.4861 80.9934C68.7217 80.9934 68.9606 80.9794 69.1908 80.936C69.8061 80.82 70.1879 80.3355 70.153 79.7448C70.1181 79.1551 69.6773 78.714 69.0403 78.7021C67.9494 78.6815 66.8585 78.6956 65.7676 78.6923C65.0837 78.6902 65.0749 78.6826 65.0869 77.9845C65.1775 72.5412 66.3938 67.3644 68.7479 62.4435C70.4399 58.9056 72.1929 55.3916 73.3372 51.6207C74.3987 48.124 75.0543 44.5634 74.9965 40.9052C74.9354 37.0574 74.127 33.3753 72.1809 30.0022C69.529 25.4043 65.5113 22.5612 60.4561 21.0708C57.982 20.3414 55.4436 19.9544 52.8724 20.0043C47.1234 20.1148 42.077 22.0605 37.8182 25.9441C35.0976 28.4241 33.3227 31.4904 32.1031 34.9145C31.1661 37.5462 30.5115 40.2484 30.1417 43.0102C29.7937 45.6083 28.6156 47.8043 27.0131 49.8225C25.8993 51.2251 24.6644 52.5355 23.6924 54.0487C23.2135 54.7944 22.8896 55.5791 23.0325 56.4994C23.195 57.5507 23.7764 58.2802 24.7124 58.7539C25.7618 59.285 26.9127 59.3381 28.0516 59.4508C28.2141 59.4671 28.3789 59.4584 28.5425 59.4682C29.221 59.5083 29.2723 59.5625 29.2788 60.2421C29.3017 63.1155 29.4206 65.9814 29.9345 68.8169C30.1188 69.8314 30.3523 70.8394 30.8682 71.7477C31.9744 73.6944 33.7536 74.4553 35.9103 74.5117C37.0404 74.541 38.1586 74.4055 39.2735 74.2375C39.9018 74.1432 39.976 74.2017 39.9782 74.826C39.9814 75.8915 39.9564 76.9581 39.9869 78.0236C40.0022 78.5352 39.8451 78.7216 39.3106 78.7086C37.9655 78.6761 36.6204 78.6945 35.2743 78.6977C34.3754 78.6999 33.8649 79.1205 33.8671 79.8434C33.8703 80.5089 34.4081 80.9859 35.2536 80.9913C37.8531 81.0075 40.4527 81 43.0534 81C46.7983 81 50.5433 81 54.2894 80.9978C54.525 80.9978 54.7639 80.9956 54.9952 80.9577C55.6563 80.8482 56.0675 80.367 56.0348 79.7697C56.001 79.1389 55.533 78.7053 54.8294 78.7021C52.8298 78.6923 50.8291 78.6988 48.8296 78.6988V78.6967L48.8306 78.6956ZM61.8939 38.5412C61.9746 38.1651 62.0543 37.8519 62.1088 37.5343C62.3772 35.9778 61.7183 34.495 60.466 33.8197C58.2995 32.6502 55.665 33.8631 55.0399 36.3225C54.7934 37.2937 54.9112 38.2551 55.1228 39.2165C55.1621 39.3932 55.3377 39.6392 55.0901 39.7498C54.8348 39.8647 54.5272 39.9546 54.2447 39.856C54.0047 39.7725 54.0865 39.5178 54.08 39.3303C54.0385 38.0773 53.9327 36.8037 53.3698 35.6895C52.8582 34.6739 53.0949 33.9379 53.6785 33.0892C54.5512 31.8221 55.6203 30.9084 57.1846 30.6602C58.0508 30.5225 58.9158 30.4781 59.7853 30.6309C61.9397 31.0103 63.5837 32.0671 64.3528 34.1763C65.0967 36.2195 64.1008 37.9808 61.8917 38.5412H61.8939ZM45.0148 37.1842C44.7791 37.1842 44.5402 37.2059 44.3068 37.1809C43.0523 37.0476 42.2068 36.42 41.9723 35.4629C41.6308 34.0701 42.5548 32.5906 44.0821 32.3066C46.2747 31.898 48.2198 32.4486 49.8168 34.0571C50.1179 34.3606 50.1081 34.6056 49.8561 34.947C48.6507 36.5804 46.9609 37.1571 45.0148 37.1831V37.1842ZM52.4862 53.7994C50.5455 53.6606 48.6299 53.1132 46.8943 51.9936C46.5573 51.7757 46.4285 51.6391 46.9107 51.4083C48.4718 50.6604 49.8004 49.6014 50.9022 48.2747C51.164 47.9604 51.3462 48.0102 51.6157 48.2259C52.2244 48.7137 52.8353 49.1993 53.4691 49.6523C53.7821 49.8756 53.8694 50.1336 53.8116 50.488C53.6643 51.3985 53.5738 52.3155 53.6043 53.239C53.6185 53.6617 53.4582 53.8449 53.0327 53.8026C52.8887 53.7885 52.7425 53.8004 52.4873 53.8004L52.4862 53.7994ZM42.4032 43.3104C42.5854 43.3104 42.7665 43.3028 42.9475 43.3126C43.1243 43.3223 43.3544 43.2746 43.445 43.4567C43.5421 43.654 43.3217 43.7711 43.2192 43.9087C42.6214 44.7086 42.2734 45.6007 42.1381 46.5914C41.9821 47.7284 42.1817 48.8188 42.473 49.9049C42.5417 50.1618 42.6454 50.4132 42.2123 50.4273C40.924 50.4674 39.8353 50.0816 39.1469 48.9391C38.3877 47.6807 38.3419 46.3573 39.0258 45.0642C39.7305 43.731 40.9676 43.3028 42.4043 43.3115L42.4032 43.3104ZM62.7721 44.4908C62.8986 44.4908 63.0273 44.481 63.1528 44.4919C64.1695 44.5807 65.0422 44.9471 65.4949 45.9107C65.9476 46.8754 65.7033 47.7869 65.0651 48.5923C64.2524 49.6177 63.0775 49.9949 61.8612 50.2756C61.5983 50.3363 61.5023 50.1889 61.4936 49.9461C61.4838 49.6588 61.4718 49.3694 61.4412 49.0833C61.307 47.8476 60.863 46.7041 60.3394 45.5909C60.1769 45.2452 60.2565 45.0674 60.6034 44.9308C61.3027 44.6555 62.015 44.4691 62.7721 44.4908ZM44.3853 47.5246C44.3777 46.2554 44.9079 45.1997 45.7947 44.5753C46.0489 44.3965 46.2671 44.3683 46.5431 44.5287C47.4234 45.0414 48.2547 45.6224 49.0717 46.2272C49.3052 46.4006 49.3575 46.5567 49.147 46.8017C48.0769 48.0449 46.794 48.9955 45.2853 49.6523C44.9722 49.7889 44.8173 49.7152 44.7224 49.3998C44.5282 48.7559 44.4399 48.0958 44.3842 47.5235L44.3853 47.5246ZM55.701 42.039C56.0261 41.9891 56.121 42.1593 56.2083 42.349C56.457 42.8888 56.6992 43.4329 56.9675 43.9629C57.1061 44.2361 57.0624 44.4149 56.8312 44.6165C55.9792 45.3612 55.2701 46.2218 54.7858 47.2482C54.657 47.5214 54.513 47.6048 54.2523 47.3924C53.7472 46.9816 53.2389 46.5762 52.7196 46.1828C52.5145 46.0267 52.5265 45.876 52.628 45.6712C53.1113 44.6989 53.4887 43.6876 53.7276 42.6286C53.7691 42.4465 53.8247 42.2731 54.0472 42.2449C54.6221 42.1712 55.197 42.1008 55.6999 42.0379L55.701 42.039ZM57.2381 37.557C57.2042 37.1018 57.2882 36.6661 57.5555 36.2759C57.8915 35.7849 58.558 35.5616 59.1547 35.7426C59.6227 35.8846 59.8474 36.2921 59.8289 36.9663C59.7994 38.0556 58.93 39.0886 57.8762 39.3075C57.597 39.365 57.5217 39.2143 57.4671 39.0041C57.3439 38.5326 57.2097 38.0621 57.2381 37.5581V37.557ZM59.1635 49.4811C59.1722 50.0837 59.1056 50.1368 58.6104 49.9602C58.0126 49.7477 57.4431 49.4735 56.889 49.1667C56.7013 49.0627 56.5563 48.9456 56.6588 48.6974C56.9642 47.9582 57.3613 47.2797 57.9602 46.7312C58.1489 46.5589 58.2766 46.6055 58.3715 46.8223C58.7511 47.6991 59.1024 48.5847 59.1635 49.48V49.4811ZM57.9809 52.2158C57.4911 52.7707 56.8813 53.0666 56.2475 53.3224C56.0577 53.3994 55.9214 53.3441 55.9279 53.1154C55.9421 52.6504 55.9563 52.1843 55.989 51.7204C56.0021 51.5307 56.0686 51.353 56.3326 51.4733C56.8693 51.7172 57.4082 51.9589 57.9809 52.2169V52.2158ZM48.823 43.2183C49.2605 43.1012 49.5648 42.9939 49.879 42.943C50.3295 42.8693 50.9688 42.5029 51.1815 42.8075C51.4073 43.1316 50.9666 43.6919 50.7986 44.1439C50.6993 44.4095 50.5553 44.4767 50.311 44.2957C49.8626 43.9629 49.4066 43.641 48.823 43.2194V43.2183Z" fill="#04FFB4"/>
</g>
<defs>
<clipPath id="clip0_4499_189">
<rect width="52" height="61" fill="white" transform="matrix(-1 0 0 1 75 20)"/>
</clipPath>
</defs>
</svg>
