<svg width="105" height="102" viewBox="0 0 105 102" fill="none" xmlns="http://www.w3.org/2000/svg">
<ellipse cx="52.5" cy="51" rx="52.5" ry="51" fill="#363471"/>
<g clip-path="url(#clip0_4499_193)">
<path d="M62.5411 63.4606C61.5981 65.1462 60.6494 66.7111 59.6877 68.2696C57.7233 71.4547 55.675 74.591 53.8485 77.8581C53.5485 78.3954 53.2717 78.9465 52.9791 79.4875C52.0258 81.2524 50.1508 82.2054 48.1184 81.9621C46.2928 81.7436 44.7431 80.3511 44.2669 78.4848C43.9725 77.33 44.1393 76.2195 44.7058 75.1836C47.3021 70.428 49.9132 65.6789 52.5178 60.928C53.1543 59.7667 53.7758 58.5981 54.43 57.447C54.6453 57.0682 54.5549 56.9613 54.1514 56.8885C50.8236 56.2849 47.5006 55.6591 44.1737 55.0526C41.7686 54.6149 40.1452 53.0675 39.7585 50.7892C39.5395 49.499 39.8889 48.2917 40.3493 47.1046C41.3129 44.619 42.7098 42.4099 44.6304 40.5335C45.8819 39.3105 46.9414 37.9253 48.0522 36.5834C48.2777 36.3115 48.5349 36.0627 48.7903 35.8175C49.3233 35.307 49.3354 35.189 48.9198 34.5651C46.9479 31.6039 44.1737 29.6298 40.9336 28.2372C39.0819 27.441 37.1278 27.0493 35.1354 26.77C32.9474 26.4631 31.4778 24.5194 31.7872 22.4697C32.1245 20.2413 34.1187 18.7602 36.3553 19.0321C40.7444 19.5639 44.813 20.9565 48.4893 23.4098C51.065 25.1286 53.1944 27.3027 55.0451 29.7616C57.5984 33.1541 59.9449 36.6783 62.0239 40.374C63.8756 43.6651 65.5138 47.0585 66.9564 50.5441C67.7233 52.3965 68.7279 54.1292 69.6812 55.8886C71.4005 59.0598 72.8021 62.3758 74.2353 65.6771C75.2026 67.9065 76.2109 70.1211 77.0021 72.4187C77.3906 73.5477 77.879 74.6638 77.9805 75.8683C78.1436 77.7963 77.3646 79.3078 75.6751 80.2608C74.0107 81.199 72.3576 80.9603 70.8088 79.9078C70.0866 79.4166 69.5917 78.7373 69.2302 77.9521C67.0701 73.2565 64.9053 68.5627 62.7415 63.8679C62.6912 63.7601 62.6362 63.6541 62.542 63.4624L62.5411 63.4606ZM75.9118 76.1743C75.8773 75.1181 75.4654 74.191 75.1215 73.262C74.1374 70.6096 72.9866 68.0226 71.859 65.4273C70.5777 62.479 69.3028 59.528 67.7587 56.7005C66.77 54.8904 65.757 53.0942 64.9668 51.1846C63.4068 47.4143 61.6074 43.7582 59.5479 40.2284C57.5276 36.765 55.279 33.4527 52.8207 30.2795C50.5441 27.3405 47.7391 25.0328 44.361 23.4255C41.7648 22.1896 39.0279 21.4283 36.1661 21.0855C34.9901 20.9445 34.006 21.6292 33.8541 22.7591C33.7162 23.7867 34.5083 24.6521 35.6796 24.7821C38.1221 25.054 40.4649 25.6899 42.6771 26.7525C46.0832 28.3884 48.944 30.6546 50.9606 33.8766C51.0836 34.0738 51.1973 34.2683 51.2449 34.5006C51.4629 35.5752 51.1209 36.4682 50.3465 37.2166C49.9467 37.6027 49.5451 37.987 49.205 38.4276C48.261 39.6487 47.276 40.8339 46.1708 41.9168C44.6965 43.3601 43.5447 45.0208 42.6958 46.8899C42.4703 47.3866 42.4675 47.3848 43.0108 47.511C44.8242 47.9313 46.6358 48.3589 48.4511 48.7718C50.1126 49.1497 51.7816 49.4971 53.4413 49.8851C54.2688 50.0787 55.114 50.263 55.7738 50.8565C56.975 51.9385 57.5211 53.2564 57.2061 54.8674C56.9759 56.0452 56.9517 57.2415 56.3189 58.3576C54.1123 62.2551 51.9922 66.2015 49.8405 70.1294C48.7316 72.1542 47.5975 74.167 46.5239 76.2102C45.579 78.0092 46.9051 80.0101 48.945 79.9151C50.0325 79.8645 50.764 79.2599 51.2355 78.341C52.4395 75.9973 53.8224 73.756 55.2081 71.5164C57.3142 68.112 59.5106 64.7601 61.38 61.2174C61.6493 60.7077 62.0491 60.4229 62.6455 60.446C63.24 60.4699 63.623 60.787 63.8607 61.3049C65.5231 64.9259 67.1819 68.5479 68.8472 72.168C69.6374 73.8868 70.4146 75.6121 71.2421 77.3143C71.7807 78.4221 73.0882 78.9788 74.2167 78.6636C75.2548 78.3742 76.0068 77.2498 75.9099 76.1752L75.9118 76.1743ZM55.197 54.1347C55.2063 53.0675 54.6099 52.273 53.6286 52.0463C49.8414 51.1717 46.0496 50.3155 42.2625 49.4418C41.9065 49.3598 41.8012 49.4455 41.7881 49.8022C41.7285 51.4141 42.6865 52.661 44.3014 52.9679C47.7261 53.6186 51.1554 54.2435 54.5801 54.8904C54.9621 54.9623 55.142 54.848 55.1718 54.4757C55.183 54.3384 55.1923 54.2001 55.197 54.1347Z" fill="#04FFB4"/>
<path d="M36.0772 44.2658C32.3944 44.2824 29.267 41.4198 29.007 37.7766C28.9846 37.4642 28.8057 37.3232 28.596 37.1601C27.2895 36.1472 26.7518 34.8238 27.105 33.2174C27.6436 30.7751 30.3591 29.5208 32.6106 30.6571C32.933 30.8203 33.1883 30.8295 33.5229 30.7041C37.967 29.0379 42.6823 31.9474 43.1278 36.6191C43.5173 40.7028 40.2492 44.2473 36.0772 44.2658ZM31.0916 37.3029C31.0851 37.3029 31.0776 37.3029 31.0711 37.3039C31.0851 37.549 31.0804 37.7969 31.1158 38.0384C31.5147 40.7701 34.246 42.6225 37.0929 42.0972C39.7767 41.6023 41.5958 38.8061 40.9602 36.1518C40.1961 32.9603 36.7071 31.3511 33.7614 32.8534C33.1091 33.1861 32.5668 33.2524 31.9899 32.7096C31.5641 32.3087 31.0068 32.1962 30.4262 32.3548C29.6435 32.5686 29.1244 33.2082 29.0806 33.9897C29.0405 34.7058 29.4776 35.3943 30.2026 35.6901C30.6107 35.8569 30.9658 36.0541 31.0394 36.5242C31.0795 36.7795 31.0758 37.0421 31.0925 37.3011L31.0916 37.3029Z" fill="#04FFB4"/>
</g>
<defs>
<clipPath id="clip0_4499_193">
<rect width="51" height="63" fill="white" transform="translate(27 19)"/>
</clipPath>
</defs>
</svg>
