<svg width="105" height="102" viewBox="0 0 105 102" fill="none" xmlns="http://www.w3.org/2000/svg">
<ellipse cx="52.5" cy="51" rx="52.5" ry="51" fill="#363471"/>
<g clip-path="url(#clip0_4499_198)">
<path d="M53.0359 22.004C58.1691 22.004 63.3022 22.006 68.4347 22C68.7505 22 69.0214 22.0755 69.293 22.2412C70.5217 22.9916 71.7608 23.7239 72.9921 24.4696C74.02 25.0924 74.2806 26.1902 73.688 27.2539C71.2995 31.543 68.9168 35.8361 66.5328 40.1285C65.1527 42.6128 63.7765 45.0991 62.3899 47.5801C62.2619 47.8093 62.2678 47.9276 62.4939 48.0866C66.5439 50.931 69.1117 54.8152 69.9837 59.7818C70.9629 65.3571 69.6484 70.3779 66.1105 74.7204C63.4555 77.9791 60.0495 80.0198 55.9644 80.7227C50.6702 81.6334 45.9204 80.2951 41.8269 76.7183C38.5573 73.8611 36.6015 70.1988 35.9277 65.8409C35.3689 62.224 35.8588 58.7428 37.3689 55.4219C38.7457 52.393 40.8009 49.9582 43.4981 48.0979C43.7476 47.9255 43.7573 47.7979 43.6137 47.5407C40.4286 41.8344 37.2519 36.1227 34.0746 30.4118C33.4833 29.3487 32.894 28.2849 32.3014 27.2225C31.7185 26.1782 31.9953 25.0743 33.0083 24.4636C34.2695 23.7025 35.5372 22.9548 36.7977 22.1938C37.042 22.0468 37.2941 22.0007 37.5722 22.0013C42.7268 22.0053 47.8814 22.004 53.0359 22.004ZM53.0041 29.334C49.3765 29.334 45.7489 29.334 42.1212 29.334C41.7619 29.334 41.7502 29.3567 41.927 29.6754C44.7534 34.759 47.5818 39.8412 50.4018 44.9287C50.5539 45.2034 50.7208 45.2896 51.0262 45.2428C52.3069 45.0457 53.5947 45.041 54.8748 45.2328C55.2607 45.2909 55.4583 45.192 55.6493 44.8466C58.4498 39.7864 61.2639 34.7336 64.0741 29.6794C64.2554 29.3534 64.243 29.3333 63.8545 29.3333C60.2379 29.3333 56.6207 29.3333 53.0041 29.3333V29.334ZM52.9905 46.346C52.0074 46.3339 51.0379 46.4382 50.0828 46.6386C44.8762 47.7311 41.0524 50.7359 38.6379 55.5796C37.0238 58.8183 36.5528 62.2822 37.1655 65.8683C37.9939 70.7213 40.4416 74.5133 44.461 77.1847C47.4681 79.1832 50.791 79.9937 54.3654 79.687C57.3997 79.4264 60.134 78.3413 62.566 76.4697C64.7473 74.7912 66.4094 72.6691 67.5614 70.1246C68.8902 67.19 69.3359 64.109 68.9467 60.9137C68.5438 57.6035 67.2807 54.6575 65.1501 52.1338C61.9435 48.3351 57.8572 46.4629 52.9905 46.346ZM52.9989 23.2415C48.2569 23.2415 43.5156 23.2415 38.7737 23.2415C38.3779 23.2415 38.3656 23.2669 38.5618 23.619C39.3032 24.952 40.0595 26.2777 40.7769 27.6241C40.9718 27.9889 41.1927 28.1059 41.5897 28.1052C49.2218 28.0932 56.8539 28.0958 64.4861 28.0958C64.551 28.0958 64.6167 28.0905 64.681 28.0958C64.8623 28.1119 64.9851 28.0397 65.0773 27.8733C65.8798 26.422 66.6862 24.9728 67.4958 23.5261C67.6244 23.2963 67.549 23.2281 67.321 23.2408C67.2346 23.2455 67.1475 23.2408 67.0611 23.2408C62.3737 23.2408 57.6856 23.2408 52.9983 23.2408L52.9989 23.2415ZM72.7939 26.1701C72.7777 25.8654 72.6029 25.6663 72.356 25.5187C71.2982 24.8866 70.2384 24.2585 69.1845 23.6203C68.9948 23.5054 68.885 23.5161 68.7725 23.7259C68.4496 24.3306 68.1098 24.926 67.7765 25.5247C65.9337 28.8395 64.0917 32.1551 62.2483 35.4693C60.4426 38.7166 58.6375 41.964 56.826 45.2074C56.6922 45.4466 56.7454 45.5341 56.9904 45.5922C58.2828 45.8996 59.516 46.3787 60.709 46.9727C61.21 47.222 61.2087 47.2159 61.4881 46.7121C63.3061 43.434 65.1248 40.1566 66.9454 36.8791C68.8304 33.4861 70.7166 30.0944 72.6016 26.7013C72.6926 26.5376 72.7848 26.3713 72.7939 26.1688V26.1701ZM37.0108 23.5288C36.9641 23.5522 36.9043 23.5776 36.8491 23.611C35.7627 24.2591 34.673 24.9006 33.5931 25.5601C33.1759 25.8153 33.109 26.1688 33.3579 26.6172C34.2331 28.1927 35.1122 29.7663 35.9881 31.3412C37.6652 34.3561 39.3402 37.3722 41.0179 40.3871C42.2278 42.5614 43.4409 44.7336 44.6462 46.9106C44.7684 47.1311 44.8645 47.2072 45.1205 47.0729C46.3583 46.4221 47.6546 45.923 49.0081 45.5889C49.2413 45.5314 49.318 45.4559 49.1783 45.2074C48.2998 43.6465 47.4337 42.0783 46.563 40.5127C44.2135 36.2898 41.8633 32.0675 39.5144 27.8446C38.762 26.4915 38.0128 25.1371 37.2591 23.7847C37.2032 23.6845 37.1739 23.5475 37.0108 23.5288Z" fill="#04FFB4"/>
<path d="M38.6214 63.0506C38.5682 55.0986 44.7903 48.1007 53.0202 48.1094C61.0077 48.1181 67.4092 54.7745 67.4157 63.036C67.4215 71.3869 60.9375 78.02 53.0026 78.0166C44.8637 78.014 38.574 71.0869 38.6214 63.0506ZM66.1922 63.062C66.2558 55.5977 60.3066 49.3509 53.0286 49.3602C45.7526 49.3702 39.8261 55.4741 39.8261 62.9905C39.8261 70.6272 45.6857 76.7538 52.9916 76.7551C60.3034 76.7571 66.1948 70.6452 66.1922 63.0613V63.062Z" fill="#04FFB4"/>
<path d="M53.0709 52.4717C53.6785 52.4844 54.1027 52.8426 54.3834 53.4059C54.7044 54.0493 55.0111 54.7001 55.3263 55.3463C55.7187 56.1521 56.119 56.9539 56.5049 57.7631C56.6024 57.9669 56.7427 58.0557 56.9533 58.0898C58.4815 58.335 60.0091 58.5849 61.536 58.8369C62.5386 59.0026 63.0851 59.7683 62.8947 60.7271C62.8408 60.9991 62.7037 61.2189 62.5172 61.4134C61.3996 62.5773 60.2891 63.7487 59.1605 64.902C58.9513 65.1158 58.8909 65.3156 58.937 65.6062C59.191 67.2092 59.4289 68.8142 59.6751 70.4185C59.768 71.0232 59.5809 71.5223 59.1202 71.8972C58.6517 72.278 58.13 72.3262 57.5965 72.0495C56.1761 71.3125 54.7571 70.5735 53.3451 69.8205C53.095 69.6868 52.8968 69.6928 52.6505 69.8251C51.2795 70.5622 49.8988 71.2811 48.5239 72.0108C47.9859 72.2961 47.4641 72.2954 46.9599 71.9366C46.4466 71.5711 46.2432 71.0586 46.3361 70.4305C46.5778 68.7921 46.8248 67.1544 47.0782 65.5174C47.1139 65.2855 47.06 65.1251 46.8969 64.9568C45.7949 63.8235 44.7085 62.6749 43.6065 61.541C43.153 61.0746 42.9561 60.5421 43.1562 59.9046C43.3518 59.2832 43.8008 58.9538 44.4193 58.8516C45.9463 58.599 47.4719 58.3384 49.0008 58.0965C49.2659 58.0544 49.4232 57.9381 49.5414 57.6936C50.2367 56.2597 50.9436 54.8311 51.6473 53.4012C51.9345 52.8172 52.3744 52.4731 53.0709 52.4697V52.4717ZM47.5512 70.5187C47.544 70.953 47.6844 71.0439 48.019 70.8695C49.5245 70.0831 51.0307 69.2979 52.5277 68.4955C52.8591 68.3177 53.1418 68.3164 53.4738 68.4941C54.952 69.2866 56.4386 70.061 57.9253 70.8374C58.0624 70.9089 58.2067 71.0426 58.373 70.9063C58.5263 70.7806 58.4802 70.6096 58.4549 70.4425C58.1956 68.7614 57.9487 67.0782 57.6732 65.4004C57.6011 64.9608 57.6946 64.6434 58.0065 64.3267C59.1709 63.1473 60.3138 61.9446 61.462 60.7485C61.588 60.6169 61.7583 60.4879 61.6757 60.2654C61.6056 60.077 61.421 60.087 61.2625 60.061C59.6173 59.7904 57.9734 59.5151 56.3275 59.2498C55.989 59.195 55.7655 59.0326 55.6102 58.7072C54.8844 57.1891 54.1424 55.679 53.4023 54.1682C53.3126 53.9852 53.2594 53.7359 53.0066 53.7333C52.761 53.7299 52.724 53.9798 52.6395 54.1495C51.8871 55.6663 51.134 57.1838 50.3952 58.7079C50.2458 59.0166 50.0385 59.1923 49.7097 59.2451C48.5765 59.4262 47.4446 59.6153 46.3121 59.8017C45.7565 59.8933 45.201 59.9815 44.6461 60.0763C44.5064 60.1004 44.3622 60.1405 44.3173 60.3062C44.277 60.4565 44.3726 60.5581 44.4635 60.6557C44.5382 60.7358 44.6149 60.8147 44.6909 60.8942C45.8163 62.0669 46.9365 63.2435 48.0704 64.4075C48.3173 64.6614 48.4037 64.9253 48.3452 65.2768C48.1893 66.2196 48.0528 67.1664 47.9105 68.1119C47.7864 68.9365 47.6643 69.761 47.5512 70.5194V70.5187Z" fill="#04FFB4"/>
</g>
<defs>
<clipPath id="clip0_4499_198">
<rect width="42" height="59" fill="white" transform="translate(32 22)"/>
</clipPath>
</defs>
</svg>
