<svg width="105" height="102" viewBox="0 0 105 102" fill="none" xmlns="http://www.w3.org/2000/svg">
<ellipse cx="52.5" cy="51" rx="52.5" ry="51" fill="#363471"/>
<g clip-path="url(#clip0_4505_82)">
<path d="M72.0068 31.9903L69.742 30.0337L72.0068 28.0774C72.359 27.7727 72.4795 27.2978 72.3142 26.867C72.148 26.4358 71.7375 26.1573 71.2681 26.1573H61.8959V25.7621C61.8959 25.3412 61.5482 25 61.1191 25C60.6901 25 60.3424 25.3412 60.3424 25.7621V36.0405L53.9628 39.4393C53.9276 39.164 53.8435 38.8934 53.7105 38.6387L52.8116 36.9169C52.1946 35.7347 50.7122 35.2661 49.508 35.8711L48.8129 36.2203C48.229 36.5138 47.7968 37.0121 47.5954 37.6247C47.394 38.2368 47.4478 38.8894 47.747 39.4619L48.6459 41.1841C48.8558 41.586 49.1659 41.9042 49.5307 42.1271C49.0535 42.7575 48.8271 43.5327 48.5942 44.3381L48.4268 44.9197C48.3099 45.3248 48.5501 45.7461 48.9629 45.8603C49.0333 45.8802 49.1045 45.8893 49.1744 45.8893C49.5133 45.8893 49.8246 45.6703 49.9217 45.3343L50.0891 44.7539C50.4295 43.576 50.6386 42.9452 51.3042 42.5905L52.4974 41.9546L52.6446 41.8808C52.6935 41.8562 52.7392 41.8284 52.7857 41.801L61.2902 37.27C61.2364 38.313 60.6642 39.2985 59.7221 39.8598L54.1917 43.1566C54.1852 43.1602 54.1787 43.1638 54.1727 43.1677L52.4513 44.1937C52.085 44.4123 51.9681 44.8812 52.1909 45.241C52.4008 45.5803 52.8375 45.7009 53.1937 45.5307L51.8877 49.4043L50.933 49.7883L48.337 50.8321L49.0851 48.2375C49.2015 47.8325 48.9617 47.4111 48.5489 47.2965C48.1356 47.1814 47.7066 47.4175 47.5897 47.8226L46.4078 51.9235C46.3924 51.9763 46.3823 52.0342 46.3799 52.0894L46.0706 57.6642C46.0613 57.8768 46.1074 58.2787 46.0071 58.4862L42.5717 65.5773H40.0752C38.6126 65.5773 37.423 66.7445 37.423 68.1791V70.3789C37.0882 70.2285 36.7166 70.1444 36.3248 70.1444H29.9848C28.5227 70.1444 27.3331 71.3112 27.3331 72.7462V75.4757H25.4682C25.0392 75.4757 24.6914 75.8169 24.6914 76.2378C24.6914 76.6587 25.0392 76.9999 25.4682 76.9999H71.2673C71.6963 76.9999 72.044 76.6587 72.044 76.2378C72.044 75.8169 71.6963 75.4757 71.2673 75.4757H69.2471V55.8317C69.2471 54.3971 68.0575 53.23 66.5953 53.23H61.8959V39.9344C62.7572 38.7891 63.0762 37.2878 62.6763 35.8612C62.6136 35.6371 62.4499 35.453 62.2315 35.3621C62.1244 35.3173 62.0095 35.2975 61.8959 35.3018V33.9105H71.2677C71.7375 33.9105 72.148 33.632 72.3138 33.2012C72.4795 32.7703 72.359 32.295 72.0068 31.9903ZM49.0741 38.0928C49.1481 37.8679 49.3066 37.6846 49.521 37.5771L50.216 37.2279C50.3471 37.1621 50.487 37.1307 50.6253 37.1307C50.9528 37.1307 51.2694 37.3065 51.4287 37.6116L52.328 39.3338C52.5379 39.7361 52.402 40.2236 52.0288 40.47L51.7756 40.6045L51.2415 40.8731C50.7995 41.0952 50.2553 40.9231 50.0288 40.489L49.1295 38.7672C49.02 38.557 49.0001 38.3174 49.0741 38.0928ZM47.5133 65.8118C47.2493 65.6936 46.9622 65.6162 46.6605 65.5888L47.5133 64.4776V65.8118ZM51.2015 59.6708C51.5751 59.2317 51.6782 58.7187 51.7615 58.3053C51.7825 58.2069 52.1659 56.1526 52.1659 56.1526C52.1659 56.1526 52.5286 56.3744 52.5666 56.3903C52.5929 56.4018 52.6115 56.4272 52.6143 56.4569L53.0368 60.6714H50.4336L51.2015 59.6708ZM55.795 55.4643L55.1391 60.6678H54.5977L54.1605 56.3078C54.1047 55.7492 53.7562 55.2616 53.2455 55.0192L52.4643 54.5332L52.9847 51.7033C52.9847 51.7033 55.1771 54.2587 55.2281 54.3237C55.6817 54.9026 55.837 55.1342 55.795 55.4643ZM47.4045 59.1527C47.5614 58.6893 47.6342 58.2176 47.6221 57.738L47.9043 52.6535L51.497 51.209L50.844 54.7582C50.842 54.7677 50.84 54.7776 50.8388 54.7871L50.2985 57.7217C50.2282 58.0256 50.1667 58.4866 49.9734 58.7369L44.7245 65.5773H44.2918L47.4045 59.1527ZM28.8866 72.7458C28.8866 72.1519 29.3791 71.6687 29.9848 71.6687H36.3248C36.9305 71.6687 37.4234 72.1519 37.4234 72.7458V75.4757H28.8866V72.7458ZM38.9765 72.7458V68.1791C38.9765 67.5848 39.4694 67.1015 40.0752 67.1015H46.4151C47.0208 67.1015 47.5133 67.5848 47.5133 68.1791V75.4757H38.9769V72.7458H38.9765ZM67.6936 55.8317V75.4757H59.1572V70.9062C59.1572 70.4852 58.8094 70.144 58.3804 70.144C57.951 70.144 57.6032 70.4852 57.6032 70.9062V75.4757H49.0669V63.2727C49.0669 62.6788 49.5594 62.1956 50.1651 62.1956H56.505C57.1107 62.1956 57.6032 62.6788 57.6032 63.2727V67.0932C57.6032 67.5141 57.951 67.8553 58.38 67.8553C58.8094 67.8553 59.1568 67.5141 59.1568 67.0932V55.8317C59.1568 55.2374 59.6497 54.7542 60.2554 54.7542H61.111C61.1135 54.7542 61.1163 54.7546 61.1191 54.7546C61.1216 54.7546 61.1244 54.7542 61.1268 54.7542H66.5949C67.2007 54.7542 67.6936 55.2378 67.6936 55.8317ZM60.2554 53.23C58.7933 53.23 57.6036 54.3971 57.6036 55.8317V60.9058C57.3255 60.7813 57.0222 60.7023 56.7031 60.6793L57.3368 55.652C57.4613 54.6721 56.9518 54.0226 56.4593 53.3942C56.4072 53.3276 53.3878 49.8102 53.3878 49.8102L55.2402 44.3155L60.3424 41.2742V53.23H60.2554ZM61.8959 32.3859V27.6819H70.1136L68.3438 29.2109C68.1028 29.4192 67.9645 29.7191 67.9645 30.0341C67.9645 30.3491 68.1028 30.649 68.3438 30.8573L70.1136 32.3863H61.8959V32.3859Z" fill="#04FFB4"/>
</g>
<defs>
<clipPath id="clip0_4505_82">
<rect width="53" height="52" fill="white" transform="translate(22 25)"/>
</clipPath>
</defs>
</svg>
