<svg width="106" height="102" viewBox="0 0 106 102" fill="none" xmlns="http://www.w3.org/2000/svg">
<ellipse cx="53" cy="51" rx="53" ry="51" fill="#363471"/>
<path d="M53.044 22.003C55.0488 22.003 57.0536 22.0117 59.0584 22.0001C60.124 21.9943 61.0604 22.2932 61.1322 23.4918C61.2097 24.7861 60.2619 25.1692 59.1417 25.2504C58.3059 25.3114 57.2719 24.9457 57.2231 26.4693C57.1369 29.1189 57.1197 29.1944 58.8114 29.6326C62.4189 30.5612 65.765 32.079 68.6286 34.4994C70.3204 35.9272 70.6708 34.0379 71.5267 33.4575C72.5119 32.79 71.9403 32.2038 71.3285 31.6321C71.0183 31.3419 70.7627 30.9762 70.5444 30.6106C70.1595 29.9663 70.1595 29.3104 70.7053 28.7532C71.2883 28.1583 71.9834 28.1177 72.667 28.5501C73.4856 29.0667 74.0772 29.8386 74.7436 30.5264C75.9126 31.7308 77.1333 32.8858 78.2965 34.0931C78.9916 34.8128 79.3449 35.6631 78.5292 36.5163C77.679 37.4015 76.8432 37.1084 76.0189 36.3712C75.5449 35.9504 75.1888 35.0334 74.4506 35.341C73.5315 35.7241 72.8594 36.5715 72.3194 37.4189C71.9604 37.9819 72.5894 38.3766 72.891 38.7712C75.5507 42.2334 77.2022 46.128 77.9461 50.4434C80.2956 64.0949 70.464 77.7898 56.8985 79.7284C42.7615 81.7483 30.072 72.302 27.9839 58.0295C26.9585 51.0268 28.7336 44.648 32.95 38.9715C33.2918 38.5101 34.0902 38.0806 33.668 37.3986C33.1453 36.5512 32.4272 35.8024 31.5368 35.3062C31.195 35.1146 30.9279 35.4629 30.678 35.6834C30.2817 36.0288 29.9054 36.4031 29.4832 36.7137C28.8169 37.207 28.1304 37.178 27.533 36.5976C26.9413 36.0201 26.8006 35.2597 27.3233 34.6358C29.173 32.4273 31.2295 30.4103 33.3722 28.4921C33.938 27.9871 34.6475 28.1757 35.196 28.6865C35.7475 29.2002 35.894 29.8241 35.5407 30.5177C35.4316 30.7296 35.2851 30.924 35.1357 31.1126C33.78 32.8046 33.8145 32.7697 35.354 34.4268C35.9916 35.1146 36.3966 35.2771 37.2066 34.6126C40.2138 32.1458 43.6375 30.4858 47.4116 29.5803C48.8534 29.235 48.9195 28.9361 48.7845 26.3938C48.7213 25.1924 47.9745 25.3056 47.2105 25.2736C46.9262 25.262 46.6418 25.2156 46.3603 25.1576C45.4929 24.9776 44.7634 24.58 44.8409 23.5643C44.9156 22.5428 45.6164 22.0378 46.5959 22.0262C48.7443 21.9972 50.8927 22.0175 53.0383 22.0175C53.0383 22.0146 53.0383 22.0117 53.0383 22.0059L53.044 22.003ZM52.9952 76.7683C65.2366 76.7915 75.117 66.8344 75.1285 54.4628C75.1428 42.216 65.2595 32.2503 53.0785 32.2212C40.7882 32.1922 30.905 42.097 30.8906 54.4512C30.8791 66.8286 40.6992 76.7451 52.9923 76.7683H52.9952ZM51.8233 27.0903C51.9928 27.7897 51.3896 28.9303 52.8745 28.9564C54.2848 28.9796 54.0119 27.9436 54.0119 27.1281C54.0119 26.3068 54.2676 25.2707 52.8774 25.2794C51.5361 25.2881 51.921 26.3068 51.8233 27.0903Z" fill="#DDFE71"/>
<path d="M41.9633 63.9361C43.6948 66.0424 45.7942 67.3401 48.2045 68.1314C54.2004 70.1053 60.7697 67.8609 64.2896 62.6816C67.9094 57.3526 67.6042 50.4267 63.5195 45.3366C59.7085 40.586 52.894 38.9113 47.1405 41.314C46.6585 41.5154 46.1878 41.7398 45.72 41.97C44.7816 42.4333 43.9344 42.3901 43.4067 41.3917C42.8504 40.3385 43.458 39.6595 44.3252 39.1818C47.0864 37.6568 50.0615 36.8684 53.1964 37.018C61.6739 37.4237 68.3316 43.4375 69.7721 51.8683C71.3495 61.0904 64.5463 70.4938 55.3357 71.7972C49.6222 72.6029 44.6418 71.0117 40.5 66.9517C39.6699 66.1402 39.3162 66.1402 38.8456 67.2135C38.4976 68.0077 37.7588 68.2983 36.9373 67.907C36.1557 67.5329 35.8219 66.8423 36.0929 65.9993C36.5293 64.6354 37.0257 63.2916 37.5249 61.9536C37.6989 61.4904 38.0583 61.1278 38.5432 61.0213C40.0721 60.6847 41.6324 60.5379 43.187 60.5696C43.9657 60.5868 44.4849 61.1738 44.5277 61.9939C44.5676 62.7334 44.1939 63.283 43.4894 63.5362C43.0558 63.6916 42.5966 63.7721 41.9633 63.9333V63.9361Z" fill="#DDFE71"/>
</svg>
