<svg width="84" height="84" viewBox="0 0 84 84" fill="none" xmlns="http://www.w3.org/2000/svg">
<circle cx="42" cy="42" r="42" fill="#363471"/>
<path d="M42.9697 34.3138C44.3942 34.5584 45.6964 35.2324 46.7342 36.2676C47.7663 37.3 48.443 38.6025 48.6875 40.0302C48.7813 40.5933 49.2647 41 49.8361 41C49.9101 41 49.9755 40.9915 50.021 40.9829C50.0238 40.9829 50.0266 40.9829 50.0295 40.9801C50.3394 40.9289 50.6095 40.7611 50.7886 40.5023C50.9678 40.2463 51.036 39.9392 50.982 39.6349C50.6578 37.7294 49.7594 35.9946 48.3804 34.6153C46.9958 33.2359 45.2585 32.3372 43.3564 32.0159H43.3536C42.7195 31.9106 42.1196 32.3401 42.0144 32.9714C41.9149 33.6085 42.3414 34.2086 42.9697 34.3138Z" fill="#04FFB4"/>
<path d="M50.4258 44.4933C49.7255 43.7422 48.8782 43.3458 47.9746 43.3458C47.0804 43.3458 46.2269 43.7358 45.5109 44.4772L43.7319 46.3113C43.6881 46.2887 43.6443 46.2661 43.6037 46.2436L43.513 46.1985C43.3223 46.0985 43.1034 45.9857 42.9221 45.8697C41.0962 44.6738 39.4297 43.1072 37.8227 41.0765C37.1348 40.1836 36.6533 39.4261 36.3 38.6719C36.7471 38.2367 37.163 37.8015 37.5538 37.389C37.6413 37.2987 37.7289 37.2052 37.8195 37.1117C37.9071 37.0183 37.9978 36.9248 38.0884 36.8313C38.8326 36.0641 39.2265 35.1745 39.2234 34.2591C39.2234 33.3468 38.8294 32.4604 38.0884 31.6997L36.3594 29.9172C36.2594 29.814 36.1593 29.7109 36.0624 29.6077C35.9655 29.5046 35.8654 29.4014 35.7685 29.3015L35.631 29.1564C35.2902 28.7986 34.9369 28.428 34.5804 28.0895C33.8863 27.3771 33.0453 27 32.1542 27C31.2663 27 30.419 27.3771 29.6968 28.0895C29.6936 28.0927 29.6905 28.0927 29.6905 28.0959L27.5238 30.3265C26.639 31.2387 26.1356 32.3508 26.0262 33.6305V33.6337C25.9105 35.1487 26.1762 36.7475 26.8641 38.6654C27.9052 41.5665 29.4685 44.2548 31.779 47.1236C34.5992 50.5887 37.9853 53.3221 41.8403 55.2465H41.8434C43.3285 55.9782 45.3233 56.8356 47.5744 56.9871C47.5775 56.9871 47.5807 56.9871 47.5838 56.9871H47.5994C47.7276 56.9936 47.8621 57 48.0027 57C49.5817 57 50.9136 56.4101 51.9578 55.2465L51.9735 55.2304C51.986 55.2175 51.9954 55.2078 52.0047 55.1949C52.3174 54.8081 52.677 54.4503 53.0803 54.0506C53.3585 53.7766 53.6431 53.4962 53.9182 53.1932C54.6279 52.4292 55.0031 51.5396 55 50.6209C54.9969 49.699 54.6154 48.8191 53.8963 48.0777L50.4258 44.4933ZM50.0819 53.4768C49.5254 54.0893 48.8876 54.3633 48.0184 54.3633C47.9371 54.3633 47.8464 54.3568 47.7526 54.3504C45.9517 54.2311 44.2478 53.4962 42.9659 52.8676C39.4266 51.1109 36.3251 48.6095 33.7456 45.4313C31.6352 42.8107 30.2126 40.3674 29.2715 37.75C28.7088 36.1931 28.4962 34.9875 28.5837 33.8497C28.64 33.1857 28.8807 32.657 29.3403 32.1896L31.4914 29.972C31.7165 29.7495 31.9479 29.6303 32.1636 29.6303C32.3668 29.6303 32.5826 29.7463 32.8108 29.9752C32.8139 29.9784 32.8171 29.9816 32.8202 29.9849C33.1922 30.3459 33.5549 30.7262 33.9395 31.1259L33.952 31.1388C34.1365 31.3354 34.3491 31.5611 34.5648 31.777L36.2907 33.5564C36.794 34.0753 36.794 34.4396 36.2907 34.9585C36.1093 35.1455 35.9249 35.3357 35.7435 35.5291L35.6153 35.6644C35.1307 36.1705 34.6742 36.6476 34.1771 37.1021C34.1709 37.1085 34.1615 37.115 34.1552 37.1246L34.124 37.1569C33.5956 37.7016 33.4517 38.3527 33.6987 39.0877C33.705 39.107 33.7113 39.1231 33.7175 39.1392C33.7206 39.1489 33.7238 39.1586 33.73 39.1683C34.1927 40.319 34.8431 41.4117 35.8436 42.7172C35.8436 42.7204 35.8467 42.7204 35.8467 42.7236C37.6226 44.9768 39.4954 46.7368 41.5745 48.097C41.8466 48.2743 42.1279 48.4226 42.3906 48.558C42.5844 48.6579 42.8033 48.7739 42.9846 48.8868C42.9971 48.8964 43.0096 48.9029 43.0221 48.9093L43.0315 48.9158C43.0503 48.9254 43.069 48.9383 43.0909 48.948C43.3629 49.0898 43.6318 49.1575 43.9101 49.1575C44.3853 49.1575 44.823 48.9544 45.1763 48.5709L47.3399 46.3403C47.4962 46.1791 47.7401 45.9857 47.9965 45.9857C48.2341 45.9857 48.4655 46.1759 48.6156 46.3371C48.6187 46.3403 48.6187 46.3403 48.6218 46.3435L52.1142 49.944C52.4581 50.2986 52.6926 50.7176 52.086 51.3752L52.0829 51.3784C51.8922 51.5912 51.689 51.7942 51.4732 52.0102C51.4263 52.0553 51.3794 52.1037 51.3325 52.152C50.8948 52.5743 50.4759 52.9933 50.0819 53.4768Z" fill="#04FFB4"/>
<path d="M56.9803 39.5098C56.4082 36.1406 54.8161 33.0669 52.3751 30.6248C49.9248 28.1795 46.8526 26.5867 43.4819 26.0174C42.7885 25.9022 42.1324 26.372 42.0173 27.0627C41.9023 27.7564 42.3718 28.4128 43.059 28.5279C45.9105 29.0133 48.5069 30.3634 50.5716 32.426C52.6363 34.4918 53.9827 37.0895 54.4678 39.9391C54.5704 40.5551 55.0991 41 55.7241 41C55.7272 41 55.7303 41 55.7334 41C55.8111 41 55.8764 40.9907 55.9262 40.9813C55.9293 40.9813 55.9324 40.9813 55.9355 40.9782C56.2745 40.9222 56.5699 40.7387 56.7658 40.4556C56.9648 40.1787 57.0394 39.8427 56.9803 39.5098Z" fill="#04FFB4"/>
</svg>
