<svg width="102" height="101" viewBox="0 0 102 101" fill="none" xmlns="http://www.w3.org/2000/svg">
<ellipse cx="51" cy="50.5" rx="51" ry="50.5" fill="#363471"/>
<g clip-path="url(#clip0_4499_154)">
<path d="M71.0958 57.0836C69.2246 57.0836 67.3495 57.0123 65.4824 57.1042C63.8795 57.1825 63.262 56.492 63.165 54.8681C62.9432 51.1482 61.2567 48.2024 58.4626 45.8757C57.448 45.0301 56.78 45.0672 56.3352 46.4096C56.2263 46.7391 56.0589 47.0521 55.8956 47.3595C55.5968 47.921 55.1718 48.3163 54.5211 48.0431C53.8385 47.7576 53.6845 47.2058 53.8585 46.4591C54.0484 45.6423 55.0404 44.8324 54.3724 44.0431C53.6818 43.2264 52.5012 43.3472 51.4827 43.3197C44.6369 43.1385 39.4657 47.899 38.8283 55.0397C38.6995 56.4879 38.143 57.1221 36.6995 57.1001C33.0143 57.0452 29.3278 57.0864 25.6413 57.0823C23.227 57.0795 22.8313 56.7007 23.0504 54.2216C23.9787 43.7151 28.7568 35.6231 37.7327 30.5552C55.0629 20.7707 76.2842 32.1859 78.745 52.4728C79.1177 55.5467 77.8154 57.0836 74.838 57.0836C73.5911 57.0836 72.3427 57.0836 71.0958 57.0836ZM49.8373 35.3403C49.8506 35.3403 49.8639 35.3403 49.8771 35.3403C49.8771 34.1667 49.8798 32.9944 49.8771 31.8208C49.8705 29.5531 49.7032 29.3499 47.5545 29.6615C42.783 30.352 38.5308 32.2957 34.7474 35.3925C33.7832 36.1818 33.9665 36.7089 34.7314 37.468C36.4498 39.1742 38.2187 40.8475 39.7632 42.7144C40.9929 44.2024 42.0221 44.5057 43.4882 43.1331C44.0526 42.6046 44.9317 42.4549 45.5904 42.0102C46.9011 41.1289 49.1282 41.8688 49.7297 40.2243C50.2556 38.7871 49.8386 36.9834 49.8386 35.3417L49.8373 35.3403ZM70.9231 54.7103C70.9231 54.724 70.9231 54.7391 70.9231 54.7528C72.1714 54.7528 73.4264 54.6677 74.6667 54.7748C76.2431 54.9093 76.6574 54.2051 76.4701 52.702C75.8287 47.5627 73.9071 43.0164 70.7571 38.993C70.0984 38.1516 69.6456 38.293 68.9989 38.9779C66.979 41.1193 64.9339 43.2374 62.8582 45.3211C62.2407 45.9416 62.2022 46.4206 62.7427 47.107C63.4983 48.0651 63.9445 49.2223 64.5182 50.2998C65.2659 51.7041 64.6178 53.9663 66.2008 54.595C67.5846 55.144 69.3348 54.7089 70.9231 54.7089V54.7103ZM31.0051 54.7501C32.4234 54.7501 33.843 54.7336 35.2613 54.7569C36.0528 54.7693 36.5069 54.5263 36.6344 53.6066C36.9704 51.1838 37.8841 48.9793 39.3183 47.0328C39.795 46.3849 39.7632 45.9471 39.2081 45.3856C37.0607 43.2099 34.9386 41.0054 32.8244 38.7954C32.3238 38.271 31.9041 38.1941 31.4207 38.7995C28.0463 43.0301 25.9773 47.8235 25.5165 53.3211C25.4249 54.411 25.9215 54.7885 26.9189 54.7611C28.28 54.7226 29.6426 54.7514 31.0037 54.7514L31.0051 54.7501ZM52.1347 35.2127C52.1347 36.6183 52.1852 38.028 52.1188 39.4296C52.067 40.5195 52.5172 40.8407 53.5065 41.1729C55.3259 41.7837 56.375 41.3829 56.8756 39.446C57.0337 38.8324 57.3657 38.2641 57.6432 37.6876C57.9779 36.9903 58.4825 36.4893 59.2634 36.8942C60.027 37.2895 59.9738 38.002 59.6684 38.7185C59.2581 39.6835 58.9115 40.6842 58.4267 41.6066C57.7388 42.9175 58.849 43.1646 59.4732 43.7508C60.1704 44.4069 60.687 44.3081 61.3244 43.6176C62.9286 41.8798 64.6178 40.2271 66.2353 38.503C68.388 36.2092 69.0467 36.7295 65.829 34.3108C62.4174 31.7453 58.5715 30.2394 54.4016 29.656C52.3193 29.365 52.1453 29.5709 52.1361 31.6972C52.1307 32.8695 52.1361 34.0404 52.1361 35.2127H52.1347Z" fill="#04FFB4"/>
<path d="M43.2704 74.9877C42.3634 74.9877 41.455 75.0083 40.5493 74.9836C38.7114 74.9328 38.1749 74.3274 38.4059 72.5018C38.9796 67.9582 41.1137 64.4482 45.0658 62.3C46.2437 61.6589 46.3433 61.2883 45.5399 60.1668C43.2983 57.0385 43.7206 53.1236 46.3991 50.6335C49.0219 48.1956 52.9103 48.1764 55.5609 50.5869C58.2621 53.0426 58.7441 57.0028 56.4998 60.1023C55.5968 61.3501 55.8876 61.7083 57.039 62.3494C60.9738 64.5416 63.0773 68.068 63.6152 72.6116C63.8144 74.289 63.2991 74.9314 61.6936 74.9726C59.6538 75.0247 57.6113 74.9945 55.5715 74.9794C54.7336 74.9726 53.8412 74.8065 53.8306 73.7468C53.8186 72.639 54.7894 72.5663 55.5782 72.532C56.9938 72.4702 58.4121 72.4853 59.8291 72.4812C60.8835 72.477 61.2128 72.0103 60.9751 70.9191C60.0376 66.6171 55.7296 63.1263 51.2064 63.0687C46.4642 63.0069 42.0978 66.3837 41.0486 70.8573C40.7658 72.0625 41.1748 72.4894 42.2903 72.488C43.7631 72.4867 45.2385 72.4963 46.7099 72.5608C47.4071 72.591 48.1707 72.79 48.1892 73.6864C48.2092 74.6541 47.4695 74.9438 46.6714 74.9671C45.5386 75.0014 44.4045 74.9753 43.2704 74.9753C43.2704 74.9808 43.2704 74.9863 43.2704 74.9918V74.9877ZM55.6233 56.0158C55.6725 53.4956 53.4242 51.1373 50.9873 51.151C48.5996 51.1648 46.4363 53.3871 46.3872 55.8772C46.3367 58.4029 48.3632 60.591 50.8545 60.7008C53.3631 60.812 55.5715 58.6418 55.6233 56.0158Z" fill="#04FFB4"/>
</g>
<defs>
<clipPath id="clip0_4499_154">
<rect width="56" height="48" fill="white" transform="translate(23 27)"/>
</clipPath>
</defs>
</svg>
