<svg width="102" height="101" viewBox="0 0 102 101" fill="none" xmlns="http://www.w3.org/2000/svg">
<ellipse cx="51" cy="50.5" rx="51" ry="50.5" fill="#363471"/>
<g clip-path="url(#clip0_4499_150)">
<path d="M70.8839 67.169C70.8839 70.8365 70.8839 74.5029 70.8839 78.1704C70.8839 78.3065 70.8814 78.4476 70.912 78.58C70.9732 78.8372 71.1542 78.9746 71.4233 78.9821C71.6948 78.9896 71.8797 78.8572 71.9485 78.6012C71.9842 78.4714 71.9919 78.3303 71.9919 78.1941C71.9932 70.9552 72.0072 63.7149 71.9881 56.476C71.9766 52.1915 68.9676 48.474 64.764 47.4775C64.0373 47.3052 63.3016 47.229 62.5519 47.2302C60.1346 47.2377 57.7172 47.2352 55.3011 47.2278C55.1316 47.2278 54.888 47.3451 54.8052 47.0742C54.6942 46.7145 54.8103 46.3761 55.0869 46.2275C56.4448 45.4995 57.5757 44.523 58.4593 43.2767C59.5965 41.6708 60.2162 39.8951 60.2289 37.9346C60.2417 36.0003 60.2429 34.066 60.2289 32.1329C60.1919 27.5263 56.9395 23.8425 52.296 23.1444C49.806 22.7698 47.4358 23.1132 45.2364 24.3595C43.1021 25.5695 41.7392 27.3652 41.1119 29.6929C41.0303 29.9976 40.9232 30.0313 40.6567 29.9114C40.2551 29.7303 39.842 29.5742 39.4327 29.4106C39.0438 29.2546 38.748 29.342 38.6129 29.6504C38.479 29.9526 38.6244 30.2411 39.0043 30.3972C39.5118 30.6057 40.0192 30.8117 40.533 31.0053C40.7396 31.0827 40.8314 31.1664 40.8046 31.4174C40.7549 31.8669 40.7676 32.3252 40.7663 32.7785C40.7638 34.4693 40.7294 36.1614 40.7727 37.8509C40.8671 41.5609 42.6227 44.3219 45.8637 46.2025C46.1519 46.3699 46.3163 46.8194 46.1863 47.1166C46.1302 47.244 46.0193 47.234 45.9134 47.234C45.536 47.2365 45.1587 47.2352 44.78 47.2352C42.6546 47.2352 40.5279 47.2515 38.4025 47.2327C33.8661 47.1915 29.6332 50.6031 29.0671 55.5069C29.0212 55.9053 29.0046 56.3074 29.0034 56.7082C28.9995 63.8098 29.0008 70.9115 29.0008 78.0143C29.0008 78.1517 28.9944 78.2903 29.0072 78.4264C29.0429 78.8035 29.229 78.9771 29.6115 78.9883C29.827 78.9946 30.0438 78.9896 30.2592 78.9896C36.7336 78.9896 43.2079 78.9634 49.6823 79.0021C52.1404 79.0171 54.3959 77.2813 54.7529 74.7701C55.2042 71.6058 52.7053 69.1495 49.9194 69.1208C48.5488 69.107 47.1782 69.1058 45.8089 69.1258C45.4787 69.1308 45.3818 69.0096 45.3461 68.7199C45.1561 67.179 44.9547 65.6405 44.7545 64.1008C44.437 61.6508 44.117 59.1995 43.7982 56.7494C43.4502 54.0784 43.1021 51.4086 42.7566 48.7375C42.7018 48.3167 42.7298 48.2917 43.171 48.2904C44.066 48.2904 44.9623 48.2992 45.8573 48.2854C46.1315 48.2817 46.2067 48.3778 46.2054 48.6338C46.1965 50.1348 46.1978 51.6358 46.2029 53.1356C46.2105 55.3146 47.9496 57.2077 50.0673 57.3538C52.4464 57.5174 54.4584 55.9565 54.7695 53.6963C54.8103 53.3941 54.795 53.0844 54.7962 52.7784C54.7988 51.4148 54.8052 50.0512 54.7911 48.6888C54.7886 48.3978 54.8562 48.2829 55.1826 48.2842C57.6968 48.2967 60.2111 48.2804 62.7253 48.2942C66.5949 48.3142 70.1177 51.2712 70.7488 55.0062C70.8419 55.5606 70.8878 56.1151 70.8865 56.677C70.8827 60.1747 70.8852 63.6737 70.8852 67.1715L70.8839 67.169ZM41.8552 35.0937C41.8552 34.0273 41.8424 32.9596 41.8616 31.8932C41.8692 31.4786 41.8998 31.4811 42.295 31.5984C44.9075 32.3764 47.5645 32.7773 50.3019 32.5013C52.1366 32.3165 53.877 31.8382 55.4847 30.9341C55.8787 30.7118 55.8761 30.7118 56.1171 31.0852C56.8693 32.2565 57.5846 33.4528 58.3904 34.5879C58.9629 35.3946 59.3033 36.2188 59.1592 37.2053C59.1452 37.299 59.1567 37.3951 59.1579 37.49C59.1809 39.2233 58.7703 40.8454 57.8065 42.3064C56.237 44.6841 54.0032 46.0639 51.1179 46.2712C48.2836 46.4748 45.8956 45.467 44.0073 43.3816C42.7681 42.013 42.0757 40.4009 41.8947 38.5764C41.78 37.4164 41.882 36.2538 41.8565 35.0937H41.8552ZM36.3345 77.9332C35.5032 77.9332 34.6732 77.9294 33.8419 77.9357C33.6162 77.9369 33.5385 77.877 33.5831 77.6372C34.1454 74.5503 34.6974 71.4609 35.2546 68.3728C36.1088 63.6425 36.9656 58.9123 37.8186 54.1808C38.1501 52.3401 38.4816 50.4995 38.8003 48.6576C38.85 48.3741 38.9648 48.2717 39.2631 48.2829C39.8777 48.3054 40.4922 48.2892 41.108 48.2892C41.6168 48.2892 41.6078 48.2904 41.6703 48.7849C41.9368 50.8903 42.2071 52.9957 42.4799 55.0998C42.7693 57.3301 43.0651 59.5604 43.3533 61.7906C43.709 64.5341 44.0583 67.2789 44.4153 70.0224C44.7443 72.5561 45.0796 75.0898 45.4149 77.6222C45.443 77.8333 45.392 77.9357 45.1485 77.9344C43.5955 77.9282 42.0413 77.9282 40.4871 77.9344C40.2691 77.9344 40.1748 77.8507 40.1582 77.6422C40.0511 76.306 39.9389 74.9699 39.8305 73.6337C39.7145 72.2027 39.601 70.7716 39.485 69.3405C39.3396 67.5723 39.1943 65.8053 39.0451 64.0384C38.9916 63.3965 38.9431 62.7547 38.8653 62.1153C38.8233 61.7719 38.5415 61.5871 38.2253 61.6433C37.9461 61.692 37.7727 61.933 37.7982 62.2951C37.8581 63.148 37.9308 64.0009 38.0022 64.8525C38.1883 67.0616 38.377 69.2706 38.5619 71.4809C38.7327 73.5226 38.8959 75.5643 39.0732 77.6047C39.0948 77.8582 39.0196 77.9431 38.7595 77.9394C37.9499 77.9282 37.1416 77.9357 36.332 77.9357L36.3345 77.9332ZM30.1126 66.7694C30.1126 63.3978 30.1203 60.0261 30.1088 56.6558C30.1037 55.1186 30.453 53.6788 31.2601 52.3588C32.6498 50.0874 34.6936 48.7612 37.3647 48.3641C37.7 48.3142 37.751 48.3741 37.6936 48.6975C37.3966 50.3621 37.1008 52.0267 36.7999 53.69C35.9648 58.3179 35.1271 62.9445 34.292 67.5723C33.6876 70.9202 33.082 74.2693 32.4853 77.6185C32.4433 77.852 32.3464 77.9419 32.1041 77.9357C31.6082 77.9232 31.1109 77.9319 30.6149 77.9319C30.2809 77.9319 30.1135 77.7725 30.1126 77.4536C30.1126 73.8922 30.1126 70.3308 30.1126 66.7694ZM59.1439 33.7688C59.0215 33.5852 58.945 33.4716 58.8711 33.3554C58.0997 32.1591 57.3309 30.9603 56.5544 29.7665C56.2905 29.3607 55.9998 29.2933 55.6364 29.543C53.8209 30.7893 51.7643 31.3112 49.5892 31.4474C47.1374 31.6009 44.7545 31.2251 42.4162 30.5133C42.128 30.4259 42.0732 30.3085 42.1471 30.0363C42.661 28.1394 43.7103 26.6022 45.3958 25.5383C47.8744 23.9724 50.562 23.6652 53.3644 24.5018C55.9144 25.2623 57.7083 26.8607 58.6314 29.3407C59.1554 30.7468 59.1936 32.2116 59.1452 33.7688H59.1439ZM47.2789 50.256C47.2789 49.2108 47.2828 48.1643 47.2751 47.1191C47.2738 46.8993 47.3338 46.8394 47.5569 46.9093C49.5153 47.5312 51.4775 47.52 53.4371 46.9156C53.6564 46.8481 53.7214 46.8868 53.7201 47.1141C53.7138 49.1633 53.7405 51.2125 53.7074 53.2604C53.6793 54.9662 52.1532 56.3486 50.4192 56.3061C48.7107 56.2637 47.2917 54.8501 47.2789 53.1705C47.2713 52.199 47.2777 51.2275 47.2777 50.256H47.2789ZM48.5323 77.9332C47.9024 77.9332 47.3848 77.9244 46.8671 77.9369C46.6172 77.9431 46.5254 77.842 46.5012 77.6085C46.4362 77.0003 46.352 76.3935 46.2743 75.7866C46.046 74.0183 45.8216 72.2489 45.5807 70.4819C45.5437 70.2072 45.638 70.1635 45.8841 70.1647C47.1782 70.1735 48.4723 70.1622 49.7652 70.1722C50.5352 70.1784 51.2518 70.3845 51.9084 70.7878C53.2357 71.6045 53.9241 73.1754 53.6462 74.7688C53.3874 76.2511 52.143 77.5123 50.6436 77.8345C49.9054 77.9931 49.1608 77.9032 48.5323 77.9332Z" fill="#DDFE71"/>
<path d="M62.9159 70.8171C62.9159 73.2571 62.9159 75.6972 62.9159 78.1372C62.9159 78.2434 62.9108 78.3495 62.9197 78.4544C62.9465 78.7803 63.1467 78.9776 63.4476 78.9851C63.7587 78.9926 63.9665 78.8153 64.0009 78.4844C64.0238 78.2646 64.0238 78.0411 64.0238 77.82C64.0238 73.0561 64.0251 68.2921 64.0238 63.5281C64.0238 63.3608 64.0238 63.186 63.9805 63.0261C63.9091 62.7639 63.7166 62.6066 63.431 62.6303C63.1403 62.654 62.9592 62.8251 62.921 63.116C62.907 63.2197 62.9146 63.3271 62.9146 63.432C62.9146 65.8933 62.9146 68.3545 62.9146 70.8158L62.9159 70.8171Z" fill="#DDFE71"/>
</g>
<defs>
<clipPath id="clip0_4499_150">
<rect width="43" height="56" fill="white" transform="matrix(-1 0 0 1 72 23)"/>
</clipPath>
</defs>
</svg>
