<svg width="102" height="101" viewBox="0 0 102 101" fill="none" xmlns="http://www.w3.org/2000/svg">
<ellipse cx="51" cy="50.5" rx="51" ry="50.5" fill="#363471"/>
<g clip-path="url(#clip0_4499_153)">
<path d="M50.2416 76.9995C49.2855 76.091 48.3181 75.1949 47.3775 74.2697C46.3553 73.2657 46.3637 72.5507 47.3873 71.5398C48.1775 70.7599 48.9677 69.9771 49.7903 69.2304C50.8082 68.3093 51.8487 68.5071 52.3493 69.7517C52.5363 70.2164 52.7359 70.28 53.1929 70.2371C58.796 69.6978 63.4078 67.3219 67.0157 63.0709C67.4586 62.5495 67.9662 62.1485 68.613 62.6671C69.1838 63.1248 68.904 63.6614 68.5202 64.1164C64.2556 69.164 58.7918 71.8302 52.1215 72.1013C51.5464 72.1248 50.977 72.1096 50.6705 71.5122C50.4989 71.1775 50.3246 71.2577 50.1123 71.4568C49.7326 71.8123 49.3516 72.169 48.9649 72.5175C48.7161 72.7416 48.6542 72.9684 48.9171 73.2173C49.2953 73.5755 49.6736 73.9336 50.0546 74.2877C50.3035 74.5186 50.5059 74.5629 50.7028 74.1992C50.9938 73.6612 51.5324 73.6488 52.0709 73.6335C62.9593 73.3141 71.9875 66.0262 74.4256 55.5921C74.472 55.3916 74.5591 55.1828 74.5366 54.9878C74.4945 54.6213 75.0302 54.0598 74.2076 53.9312C73.4976 53.8192 73.1179 54.0681 72.9801 54.8177C72.6469 56.6196 72.0367 58.3413 71.2113 59.9842C71.0721 60.2608 70.9259 60.5443 70.7234 60.7739C70.4225 61.1168 70.0232 61.2496 69.6 60.9813C69.2049 60.731 69.0503 60.3659 69.2232 59.9109C69.309 59.6855 69.4158 59.4684 69.5227 59.2527C70.4746 57.3553 71.089 55.357 71.3969 53.2647C71.553 52.2067 71.9523 51.8914 73.0111 51.98C73.776 52.0436 74.5437 52.0961 75.3071 52.1777C76.4095 52.2939 76.7287 52.6368 76.5754 53.7224C75.3929 62.1554 70.9259 68.384 63.412 72.5203C60.2836 74.242 56.8809 75.1257 53.3152 75.3981C52.8203 75.4355 52.4266 75.4701 52.3408 76.0716C52.2846 76.4588 51.9598 76.7174 51.7081 77.0037H50.2374L50.2416 76.9995Z" fill="#DDFE71"/>
<path d="M48.2109 41.3573C48.2109 42.8715 48.218 44.3872 48.2081 45.9015C48.1997 47.1268 48.0071 47.3079 46.7079 47.3107C43.6624 47.3176 40.6169 47.3383 37.5728 47.2969C36.7039 47.2844 36.3988 47.5555 36.4339 48.4156C36.493 49.8594 36.493 51.3087 36.4339 52.7524C36.3988 53.5932 36.7306 53.8117 37.5348 53.8021C40.5452 53.7675 43.5555 53.7855 46.5659 53.7896C48.0661 53.791 48.2095 53.9279 48.2109 55.3703C48.2152 58.3311 48.2391 61.2919 48.1969 64.2527C48.1842 65.106 48.457 65.4088 49.333 65.3742C50.8009 65.3162 52.2744 65.3162 53.7423 65.3742C54.5972 65.4088 54.8193 65.0825 54.8095 64.2914C54.7743 61.3306 54.7926 58.3698 54.7968 55.409C54.7982 53.9334 54.936 53.7938 56.4025 53.791C59.4129 53.7869 62.4232 53.7633 65.4336 53.8048C66.2997 53.8173 66.609 53.5504 66.5739 52.6874C66.5148 51.2437 66.5148 49.7944 66.5739 48.3506C66.6076 47.5126 66.2828 47.2208 65.4743 47.3065C65.1636 47.3397 64.8416 47.3259 64.5309 47.2872C64.0191 47.2236 63.676 46.9359 63.6844 46.409C63.6929 45.9347 64.0247 45.6097 64.4774 45.589C65.4884 45.5433 66.5078 45.5226 67.5145 45.6C68.1261 45.6484 68.3511 46.167 68.3525 46.7395C68.3567 49.2869 68.3638 51.8342 68.3483 54.3815C68.3427 55.3316 67.7198 55.575 66.8691 55.5722C63.8588 55.5597 60.8484 55.6012 57.8381 55.5487C56.8764 55.5321 56.5642 55.8156 56.5825 56.7739C56.6388 59.6988 56.6078 62.6264 56.5994 65.5526C56.5952 66.8401 56.3041 67.125 54.9867 67.1305C52.6414 67.1402 50.2961 67.1416 47.9508 67.1305C46.7051 67.1236 46.407 66.8263 46.4028 65.5941C46.3929 62.6333 46.3662 59.6725 46.4182 56.7117C46.4351 55.7838 46.1061 55.5362 45.2048 55.5501C42.2648 55.5971 39.3247 55.5708 36.3847 55.5653C34.9055 55.5625 34.6482 55.3205 34.644 53.9058C34.6356 51.6682 34.6356 49.4307 34.644 47.1931C34.6482 45.7798 34.9055 45.5364 36.3847 45.535C39.3247 45.5295 42.2662 45.5046 45.2048 45.5502C46.1075 45.5641 46.4351 45.3165 46.4182 44.3886C46.3662 41.4637 46.3943 38.5361 46.4014 35.6099C46.4042 34.245 46.6769 33.9725 48.0549 33.9684C50.4001 33.9601 52.7454 33.9559 55.0907 33.9711C56.276 33.9781 56.5924 34.2864 56.598 35.4426C56.6106 38.4379 56.6289 41.4333 56.5867 44.4273C56.5741 45.2861 56.8651 45.5973 57.7327 45.5447C58.6747 45.488 59.6224 45.5309 60.5672 45.5378C61.1986 45.5419 61.7272 45.7757 61.7258 46.4561C61.7244 47.1696 61.1493 47.3107 60.5349 47.3107C59.0304 47.3079 57.5246 47.2955 56.0201 47.3162C55.1118 47.3287 54.7842 46.8903 54.7884 46.0412C54.8053 42.9767 54.7687 39.9135 54.8095 36.849C54.8207 35.9943 54.548 35.6942 53.672 35.7288C52.2041 35.7869 50.7306 35.7869 49.2627 35.7288C48.4064 35.6942 48.1702 36.0206 48.1955 36.813C48.2433 38.3259 48.2095 39.8416 48.2095 41.3573H48.2109Z" fill="#DDFE71"/>
<path d="M26.3806 47.4641C26.9304 42.8286 28.8004 38.4876 31.9795 34.6971C32.345 34.2615 32.8273 34.0042 33.3433 34.4398C33.9395 34.9418 33.6948 35.4826 33.2843 35.9804C31.4114 38.2525 30.0223 40.7833 29.1097 43.5643C28.8088 44.4798 28.5319 45.4063 28.4334 46.3688C28.4025 46.6758 28.1466 47.1004 28.7371 47.164C29.2236 47.2165 29.7579 47.294 29.9295 46.6426C30.1123 45.9443 30.2529 45.2335 30.4497 44.5392C32.7584 36.4229 40.1669 30.1929 48.6734 29.1779C49.51 29.0783 50.3396 28.987 51.1804 29.0022C51.501 29.0078 51.8455 29.0064 52.0592 29.2622C53.2149 30.6465 53.3696 28.893 53.9236 28.6178C54.7489 28.2071 53.9391 27.8046 53.6452 27.4645C53.4202 27.2045 53.1432 26.986 52.8761 26.7633C52.7046 26.6209 52.5105 26.5241 52.3671 26.8076C52.0184 27.4949 51.373 27.452 50.7347 27.4741C45.493 27.6636 40.8277 29.3853 36.7235 32.595C36.1554 33.039 35.5368 33.9116 34.7845 33.0639C33.962 32.1359 35.0137 31.6464 35.5804 31.1969C39.7001 27.9236 44.4244 26.1134 49.7012 25.7082C50.2102 25.6694 50.4844 25.5616 50.6799 25.0236C51.0721 23.938 52.1576 23.6767 53.035 24.429C53.9841 25.2421 54.8952 26.1023 55.7739 26.9887C56.6105 27.8323 56.5909 28.5708 55.7529 29.4199C54.9247 30.2593 54.0797 31.0863 53.2037 31.8787C52.1773 32.808 51.1973 32.6075 50.6559 31.3297C50.4619 30.8733 50.2454 30.7973 49.7969 30.8443C40.1598 31.8704 33.1662 38.4295 31.5998 47.9412C31.4677 48.746 31.0838 49.2038 30.2107 49.1388C29.3052 49.0696 28.3983 49.0102 27.4956 48.912C26.7898 48.8359 26.3061 48.5096 26.3806 47.4641Z" fill="#DDFE71"/>
<path d="M76.9931 36.3773C76.9931 36.481 76.9931 36.5833 76.9931 36.687C76.9931 38.9232 76.9931 38.9592 74.7462 38.9633C73.8689 38.9647 73.5258 39.2703 73.6214 40.1139C73.6565 40.4195 73.6158 40.732 73.6256 41.0418C73.6509 41.855 73.2136 42.2671 72.4291 42.2989C71.5222 42.3348 70.6125 42.3293 69.7042 42.3058C68.8704 42.2837 68.3979 41.8799 68.45 41.0086C68.4542 40.9395 68.45 40.8717 68.45 40.8026C68.4289 39.02 68.7438 38.9771 66.6685 38.9716C65.3328 38.9674 65.0853 38.6909 65.0741 37.3909C65.067 36.5999 65.0867 35.8089 65.0727 35.0192C65.0572 34.1494 65.5043 33.7981 66.3578 33.7594C68.3783 33.6668 68.4036 33.6515 68.4401 31.7556C68.4584 30.8401 68.8633 30.4321 69.7787 30.4487C70.6167 30.4653 71.4561 30.4639 72.2955 30.4487C73.2151 30.4321 73.613 30.8567 73.6355 31.7625C73.6847 33.6861 73.7072 33.7082 75.6236 33.7553C76.5896 33.7788 77.0493 34.1812 76.9959 35.1423C76.9734 35.553 76.9917 35.9665 76.9931 36.38V36.3773ZM66.9005 36.2763C66.8077 37.0245 67.3026 37.0729 67.889 37.0895C70.1977 37.1545 70.1977 37.1641 70.261 39.3865C70.2638 39.4902 70.2694 39.5925 70.2666 39.6962C70.2497 40.2425 70.5618 40.4057 71.0638 40.4043C71.5967 40.4043 71.7781 40.1595 71.8231 39.6492C72.0241 37.3093 72.0368 37.2941 74.4242 37.0895C75.026 37.0383 75.1948 36.7742 75.1891 36.2348C75.1821 35.6803 74.8882 35.5613 74.3919 35.5295C72.0087 35.3747 71.9988 35.365 71.8245 32.9905C71.7879 32.4941 71.6473 32.2285 71.0919 32.2216C70.5239 32.2133 70.2933 32.4125 70.2525 32.9933C70.088 35.3415 70.0711 35.3525 67.664 35.5295C67.1536 35.5669 66.8583 35.7148 66.9033 36.2749L66.9005 36.2763Z" fill="#DDFE71"/>
<path d="M37.9326 64.7914C37.9326 64.9283 37.9326 65.0666 37.9326 65.2035C37.9326 67.2987 37.9087 67.3692 35.7603 67.3194C34.7606 67.2959 34.4316 67.6527 34.5483 68.5723C34.5876 68.8765 34.5483 69.1905 34.5483 69.5002C34.5483 70.265 34.1475 70.6398 33.3841 70.6467C32.5109 70.655 31.6363 70.6342 30.7632 70.6577C29.7944 70.6826 29.3796 70.2512 29.3656 69.2928C29.3389 67.401 29.3108 67.401 27.4337 67.3401C26.2962 67.3028 26.029 67.0428 26.0122 65.913C25.9995 65.1219 26.0431 64.3295 26.0009 63.5413C25.9489 62.5691 26.4241 62.1819 27.362 62.1238C29.2911 62.0049 29.3178 61.9883 29.3656 60.1144C29.3895 59.1893 29.8549 58.8048 30.7266 58.791C31.5646 58.7772 32.404 58.7758 33.2435 58.7924C34.1279 58.8104 34.6143 59.2197 34.5553 60.1435C34.5356 60.4519 34.5834 60.7658 34.5483 61.0714C34.4541 61.9025 34.8562 62.1293 35.6492 62.1362C37.9312 62.1584 37.9312 62.1846 37.9312 64.3793C37.9312 64.5162 37.9312 64.6545 37.9312 64.7914H37.9326ZM36.1062 64.8537C36.1399 64.3683 36.0049 64.0599 35.4369 64.0184C34.6523 63.9603 33.7651 64.2784 33.1113 63.6782C32.435 63.0573 32.8146 62.1764 32.7513 61.4116C32.7063 60.875 32.4547 60.6966 31.9499 60.6966C31.4226 60.6966 31.23 60.929 31.1836 61.4434C30.9741 63.7874 30.9629 63.804 28.5796 64.0101C27.975 64.0626 27.8119 64.3309 27.8189 64.8675C27.826 65.4234 28.1226 65.5382 28.6176 65.57C30.998 65.7235 31.0093 65.7332 31.1836 68.109C31.2202 68.6055 31.3594 68.871 31.9162 68.8779C32.4842 68.8862 32.7148 68.6885 32.7556 68.1063C32.9215 65.7526 32.9383 65.7429 35.3399 65.5686C35.846 65.5327 36.1497 65.3902 36.1062 64.8523V64.8537Z" fill="#DDFE71"/>
<path d="M65.6881 28.0229C65.6262 28.5982 65.2494 28.9024 64.7081 28.8872C63.9446 28.8651 63.6437 29.1831 63.61 29.9064C63.5847 30.4568 63.3611 30.9588 62.689 30.938C62.0493 30.9187 61.7709 30.4526 61.7737 29.887C61.7765 29.2122 61.567 28.8595 60.8119 28.8996C60.2298 28.9301 59.7307 28.6645 59.718 28.0422C59.704 27.3466 60.2369 27.1088 60.864 27.1447C61.5712 27.1848 61.7709 26.8502 61.7681 26.2182C61.7652 25.6152 62.0057 25.1077 62.7214 25.1035C63.4061 25.0994 63.5931 25.6194 63.6142 26.1601C63.6437 26.8986 63.9699 27.1959 64.725 27.1558C65.2888 27.1254 65.6361 27.4393 65.6881 28.0242V28.0229Z" fill="#DDFE71"/>
<path d="M40.2914 70.1449C40.9086 70.2072 41.232 70.6054 41.2264 71.1752C41.218 71.9095 41.4668 72.2442 42.257 72.2096C42.8448 72.1833 43.3144 72.4973 43.2877 73.1223C43.2609 73.7474 42.7688 73.9894 42.1797 73.9576C41.5146 73.9217 41.2236 74.172 41.239 74.8468C41.2517 75.4415 41.0366 75.9711 40.3209 75.9974C39.5673 76.0251 39.4224 75.4484 39.3789 74.8773C39.3325 74.2674 39.1201 73.9147 38.4227 73.9576C37.8378 73.9936 37.3527 73.7723 37.3317 73.121C37.312 72.4751 37.7788 72.1916 38.3609 72.2082C39.092 72.229 39.3493 71.8985 39.3859 71.2333C39.4154 70.687 39.6123 70.2182 40.2914 70.1436V70.1449Z" fill="#DDFE71"/>
</g>
<defs>
<clipPath id="clip0_4499_153">
<rect width="51" height="53" fill="white" transform="translate(26 24)"/>
</clipPath>
</defs>
</svg>
