<svg width="102" height="101" viewBox="0 0 102 101" fill="none" xmlns="http://www.w3.org/2000/svg">
<ellipse cx="51" cy="50.5" rx="51" ry="50.5" fill="#363471"/>
<g clip-path="url(#clip0_4499_151)">
<path d="M55.2388 56.1395C53.5388 56.0499 51.8221 55.9437 50.1055 55.8784C49.2925 55.8465 48.4857 55.8329 47.6864 55.6492C45.0524 55.045 43.3145 52.6768 43.6612 49.9731C43.7702 49.12 43.5144 48.9363 42.7559 48.9424C39.9494 48.9636 37.1443 48.9515 34.3377 48.9484C33.9683 48.9484 33.5959 48.9606 33.2326 48.9075C32.6695 48.8255 32.2411 48.5416 32.2532 47.9055C32.2653 47.2664 32.7194 47.0235 33.275 46.9385C33.5293 46.9006 33.7912 46.9067 34.0485 46.9067C37.9632 46.9051 41.8764 46.9021 45.7911 46.9127C46.1923 46.9127 46.6025 46.9628 46.99 47.0615C47.3761 47.1587 47.6137 47.4501 47.641 47.8676C47.6682 48.2835 47.4835 48.6843 47.1051 48.7405C45.6927 48.95 45.4278 49.8684 45.5973 51.057C45.7926 52.4248 46.7766 53.4829 48.0588 53.7394C48.6007 53.8472 49.1518 53.9398 49.7028 53.9611C52.0991 54.0567 54.497 54.125 56.8933 54.1994C57.4883 54.2176 58.1256 54.1721 58.4117 54.8492C58.6766 55.4761 58.2346 55.9012 57.8803 56.3217C56.2606 58.2451 54.6257 60.1548 53.0104 62.0812C52.1461 63.1135 52.1279 64.0395 52.9166 64.709C53.6599 65.342 54.603 65.2206 55.4295 64.2885C57.9802 61.4117 60.531 58.5335 63.0258 55.6082C64.4805 53.9034 63.8281 52.2381 61.6558 51.8221C58.4632 51.2104 55.2236 50.9705 52.0068 50.5621C51.2953 50.4726 50.605 50.3177 50.7216 49.4099C50.8321 48.5416 51.5799 48.6099 52.2021 48.6585C53.3041 48.745 54.4122 48.827 55.4991 49.0198C56.5845 49.2126 57.4171 49.038 58.068 48.0437C58.6327 47.1814 59.3442 46.4148 59.9906 45.6057C61.0502 44.2774 61.297 44.2455 62.6942 45.2793C63.6449 45.9822 64.585 46.7002 65.5387 47.3985C66.9102 48.4019 68.0924 48.2547 69.0734 46.9127C70.9278 44.373 72.758 41.8181 74.5851 39.2587C75.2558 38.319 75.1967 37.4658 74.4716 36.8966C73.692 36.2848 72.867 36.4624 72.1192 37.4704C70.7098 39.3725 69.3383 41.302 67.9365 43.2087C67.107 44.3366 66.5786 44.3502 65.6704 43.3134C64.8423 42.3676 64.0097 41.4249 63.1862 40.4761C62.7518 39.9737 62.555 39.4272 63.159 38.9308C63.707 38.4799 64.1959 38.7425 64.6092 39.1964C65.0331 39.6609 65.4736 40.1133 65.852 40.6143C66.4606 41.4189 66.8935 41.5388 67.5217 40.5551C68.4754 39.0613 69.5745 37.6586 70.6356 36.2362C71.933 34.4965 73.9872 34.1155 75.5888 35.2874C77.1541 36.432 77.475 38.4844 76.2655 40.2105C74.355 42.9369 72.4113 45.6391 70.4313 48.3154C69.0053 50.2418 66.7452 50.5728 64.753 49.208C63.931 48.6448 63.1257 48.0498 62.3521 47.4213C61.7708 46.9476 61.2985 46.9385 60.8837 47.5837C60.4916 48.1925 59.5274 48.7086 59.7408 49.3401C59.9285 49.8972 60.9867 49.6938 61.6618 49.8259C61.951 49.8821 62.2431 49.9352 62.5292 50.002C65.581 50.7215 66.8072 54.1083 64.7908 56.5069C62.1508 59.6477 59.429 62.7203 56.6829 65.7701C55.2176 67.3975 53.0483 67.4825 51.5481 66.1132C50.1176 64.8061 50.0298 62.6429 51.3649 61.0094C52.6502 59.4383 53.9611 57.8868 55.2584 56.3232C55.2736 56.305 55.2524 56.2564 55.2388 56.1365V56.1395Z" fill="#04FFB4"/>
<path d="M36.8405 35.7828C38.9432 35.7844 41.0474 35.7828 43.15 35.7859C43.7223 35.7859 44.3278 35.842 44.5004 36.5009C44.735 37.3935 44.1355 37.6743 43.3983 37.7867C42.2115 37.9673 40.8506 39.2152 40.6129 40.3628C40.4691 41.0566 40.7113 41.5894 41.3259 41.9583C41.9405 42.3287 42.5127 42.1724 42.9245 41.6942C43.5739 40.9412 44.1431 40.1184 44.7304 39.3123C45.7523 37.9081 46.7695 36.4994 47.7732 35.0815C48.3348 34.2876 48.9706 34.1874 49.7472 34.7673C50.9007 35.628 52.0694 36.4705 53.2304 37.3237C53.9313 37.8383 54.0131 38.4379 53.4817 39.1302C51.7257 41.4164 49.9773 43.7071 48.2137 45.9873C47.8065 46.514 47.2661 46.7584 46.6833 46.2909C46.1186 45.837 46.3305 45.295 46.6923 44.8199C48.1229 42.936 49.5428 41.0444 51.0142 39.1924C51.4487 38.6459 51.4033 38.356 50.8462 37.9673C48.7102 36.4751 49.2401 36.3703 47.7429 38.4334C46.7877 39.7495 45.8597 41.0854 44.8924 42.3925C43.5921 44.1504 41.774 44.5815 40.1694 43.5417C38.5133 42.4684 38.1242 40.5511 39.2777 38.6975C39.8 37.858 39.4458 37.8019 38.7252 37.8064C36.2532 37.8216 33.7811 37.8155 31.3091 37.8079C30.9049 37.8079 30.4947 37.7973 30.098 37.732C29.5803 37.6485 29.1913 37.3738 29.2004 36.7848C29.2109 36.1472 29.6303 35.839 30.201 35.8162C31.3061 35.7707 32.4142 35.7859 33.5207 35.7813C34.6273 35.7768 35.7339 35.7813 36.842 35.7813L36.8405 35.7828Z" fill="#04FFB4"/>
<path d="M31.342 74.9958C29.6662 75.0079 28.6141 74.3354 28.001 72.9813C27.341 71.524 27.6317 70.1972 28.714 69.1011C30.0386 67.7622 31.4464 66.5052 32.8285 65.224C34.1016 64.0429 35.3732 62.8589 36.6766 61.7112C37.6364 60.8656 38.3812 59.8835 38.9382 58.7328C39.3243 57.9358 39.7769 57.1676 40.2416 56.4132C40.5308 55.9441 40.9985 55.8075 41.4951 56.0716C41.9583 56.319 42.0915 56.8109 41.8735 57.2238C40.9607 58.9468 40.3294 60.8672 38.8898 62.2471C36.3557 64.676 33.7444 67.0244 31.1679 69.4078C30.8697 69.6841 30.5699 69.9588 30.2869 70.2518C29.5693 70.9957 29.4709 72.0249 30.0492 72.6352C30.6487 73.2697 31.5751 73.2272 32.4153 72.4834C33.6869 71.3555 34.9433 70.2108 36.1967 69.0632C37.9951 67.4161 39.7966 65.7705 41.5768 64.1037C42.7288 63.0258 43.3313 61.5533 44.2093 60.2782C44.8587 59.3339 45.4309 58.3381 46.0455 57.3695C46.3922 56.823 46.8524 56.4192 47.5079 56.8109C48.1694 57.2056 48.0468 57.8083 47.6956 58.3578C45.5748 61.6824 43.7173 65.1785 40.5474 67.7364C38.1662 69.6583 35.9909 71.8412 33.7338 73.9164C32.9966 74.5935 32.1837 75.0459 31.342 74.9912V74.9958Z" fill="#04FFB4"/>
<path d="M63.792 26.0003C66.9543 26.0306 69.6126 28.7555 69.5929 31.9465C69.5717 35.1527 66.7757 37.9003 63.6028 37.8335C60.4586 37.7668 57.761 34.9963 57.7913 31.8691C57.8231 28.6189 60.5328 25.9699 63.792 26.0003ZM63.689 35.8009C65.9809 35.8024 67.575 34.1963 67.5704 31.8858C67.5674 29.6239 65.8841 27.9449 63.6542 27.9768C61.4592 28.0087 59.8288 29.6633 59.8167 31.8706C59.8046 34.1781 61.4017 35.7993 63.6875 35.8009H63.689Z" fill="#04FFB4"/>
<path d="M62.5762 68.8898C62.5868 65.8597 65.0437 63.3625 68.041 63.3352C71.0535 63.3079 73.6103 65.8946 73.5846 68.9459C73.5604 71.9335 70.9702 74.499 68.0365 74.4428C64.9862 74.3851 62.5656 71.9229 62.5762 68.8898ZM68.1606 65.3679C66.1049 65.3345 64.5396 66.8176 64.5078 68.829C64.476 70.8663 65.9868 72.4162 68.0259 72.4375C70.0438 72.4572 71.6454 70.8951 71.6469 68.9034C71.6469 66.9315 70.1377 65.3982 68.1606 65.3663V65.3679Z" fill="#04FFB4"/>
<path d="M48.5871 28.2373C49.6301 28.2904 50.5383 28.67 51.3558 29.2711C53.0195 30.4931 54.6756 31.7273 56.3317 32.9615C56.863 33.3562 57.3656 33.8314 56.8978 34.5251C56.3831 35.2887 55.7489 34.9426 55.1812 34.5221C53.5493 33.3167 51.9371 32.0871 50.2901 30.903C48.796 29.8282 47.7181 30.0423 46.6388 31.5619C45.9757 32.4939 45.3127 33.426 44.6512 34.3596C44.2636 34.9062 43.7717 35.2143 43.157 34.7802C42.5197 34.3278 42.7271 33.7646 43.1041 33.2332C43.9155 32.0886 44.7042 30.9288 45.5428 29.8055C46.2967 28.796 47.376 28.3648 48.5855 28.2403L48.5871 28.2373Z" fill="#04FFB4"/>
<path d="M34.9619 55.2199C32.4536 55.2199 29.9467 55.2215 27.4383 55.2184C26.7541 55.2184 25.973 55.2093 26.0017 54.2712C26.029 53.3892 26.7708 53.3193 27.4747 53.3193C32.4899 53.3209 37.5066 53.3193 42.5219 53.3209C42.6687 53.3209 42.8171 53.3209 42.9639 53.3345C43.5316 53.3876 44.0099 53.6214 44.0281 54.2454C44.0478 54.9391 43.5543 55.2048 42.9276 55.2093C41.1201 55.223 39.3126 55.2199 37.5066 55.223C36.6589 55.223 35.8097 55.223 34.9619 55.223V55.2199Z" fill="#04FFB4"/>
</g>
<defs>
<clipPath id="clip0_4499_151">
<rect width="51" height="49" fill="white" transform="translate(26 26)"/>
</clipPath>
</defs>
</svg>
