<svg width="102" height="101" viewBox="0 0 102 101" fill="none" xmlns="http://www.w3.org/2000/svg">
<ellipse cx="51" cy="50.5" rx="51" ry="50.5" fill="#363471"/>
<path fill-rule="evenodd" clip-rule="evenodd" d="M64.2812 49.0312C72.4304 49.0312 79.0469 55.5427 79.0469 63.5625C79.0469 71.5823 72.4304 78.0938 64.2812 78.0938C56.1321 78.0938 49.5156 71.5823 49.5156 63.5625C49.5156 55.5427 56.1321 49.0312 64.2812 49.0312ZM64.2812 50.9688C57.2184 50.9688 51.4844 56.6117 51.4844 63.5625C51.4844 70.5133 57.2184 76.1562 64.2812 76.1562C71.3441 76.1562 77.0781 70.5133 77.0781 63.5625C77.0781 56.6117 71.3441 50.9688 64.2812 50.9688ZM60.3438 67.4375H54.9297C54.3858 67.4375 53.9453 67.004 53.9453 66.4688V60.6562C53.9453 60.121 54.3858 59.6875 54.9297 59.6875H60.3438V54.3594C60.3438 53.8241 60.7843 53.3906 61.3281 53.3906H67.2344C67.7782 53.3906 68.2188 53.8241 68.2188 54.3594V59.6875H73.6328C74.1767 59.6875 74.6172 60.121 74.6172 60.6562V66.4688C74.6172 67.004 74.1767 67.4375 73.6328 67.4375H68.2188V72.7656C68.2188 73.3009 67.7782 73.7344 67.2344 73.7344H61.3281C60.7843 73.7344 60.3438 73.3009 60.3438 72.7656V67.4375ZM62.3125 66.4688V71.7969H66.25V66.4688C66.25 65.9335 66.6905 65.5 67.2344 65.5H72.6484V61.625H67.2344C66.6905 61.625 66.25 61.1915 66.25 60.6562V55.3281H62.3125V60.6562C62.3125 61.1915 61.872 61.625 61.3281 61.625H55.9141V65.5H61.3281C61.872 65.5 62.3125 65.9335 62.3125 66.4688ZM49.584 55.6861C49.3754 55.3044 49.1632 54.9256 48.9467 54.5497L43.2373 57.7602L45.1332 67.0902C45.2956 67.8889 45.0854 68.7177 44.5603 69.3479C44.0356 69.9785 43.2511 70.3438 42.4227 70.3438C41.2257 70.3438 40.1774 69.5518 39.8692 68.4135L36.26 55.0932C36.1572 54.7144 36.2965 54.3124 36.6129 54.0741L44.6159 48.0514C42.9922 45.9153 41.24 43.8756 39.3844 41.9124L32.6001 44.1376C32.3462 44.2214 32.0681 44.1991 31.8308 44.0761L23.2678 39.6407C22.4596 39.2222 21.9531 38.3968 21.9531 37.4978V37.2203C21.9531 36.4007 22.3744 35.6363 23.0729 35.1897C23.7718 34.7432 24.6523 34.6744 25.4137 35.0071L31.7801 37.7918C33.5284 36.9635 40.3974 33.709 43.3259 32.3237C44.0307 31.9895 44.9506 31.9987 45.7597 32.0946C47.4775 32.299 53.6347 33.5477 53.6347 33.5477C53.8297 33.584 54.0088 33.677 54.1491 33.8151L60.5062 40.0708C61.4571 41.0071 61.4571 42.5242 60.5062 43.4605L60.4919 43.474C59.605 44.3469 58.1865 44.405 57.2287 43.6077L52.0396 39.2866L51.5676 39.2091C53.4197 42.0456 55.0793 45.2212 56.549 48.9562C55.9559 49.2608 55.3835 49.5999 54.8352 49.97C52.2793 43.3752 49.1243 38.5726 45.3429 34.3009C45.0515 33.9759 44.5765 33.8815 44.1798 34.0694C40.8098 35.664 32.2241 39.7322 32.2241 39.7322C31.9637 39.8557 31.661 39.8601 31.3972 39.7448L24.6139 36.7775C24.4618 36.7112 24.2856 36.7247 24.1458 36.8143C24.006 36.9035 23.9219 37.0565 23.9219 37.2203V37.4978C23.9219 37.6775 24.0233 37.8427 24.1847 37.9265L32.3762 42.1691L39.3608 39.878C39.724 39.7584 40.1252 39.8577 40.388 40.1323C44.3841 44.3013 47.9308 48.8055 50.7899 53.8222C50.3474 54.4146 49.9443 55.037 49.584 55.6861ZM47.9475 52.8801C47.2565 51.768 46.53 50.6825 45.772 49.6207L38.3316 55.2201L41.7715 67.9141C41.8498 68.2043 42.1171 68.4062 42.4222 68.4062C42.6604 68.4062 42.8868 68.3011 43.0379 68.12C43.189 67.9383 43.2496 67.7 43.2028 67.47L41.1676 57.4555C41.0845 57.0467 41.2764 56.6316 41.6446 56.4248L47.9475 52.8801ZM48.0843 34.4952C48.7542 35.3036 49.4039 36.1338 50.0334 36.9936L52.6307 37.4193C52.8054 37.4479 52.9693 37.523 53.1047 37.6354L58.5005 42.1289C58.6762 42.2752 58.9371 42.2645 59.1 42.1042L59.1138 42.0902C59.2959 41.9109 59.2959 41.6203 59.1138 41.4411L52.9723 35.3971L48.0843 34.4952ZM39.1797 21.9062C42.1678 21.9062 44.5938 24.2937 44.5938 27.2344C44.5938 30.175 42.1678 32.5625 39.1797 32.5625C36.1916 32.5625 33.7656 30.175 33.7656 27.2344C33.7656 24.2937 36.1916 21.9062 39.1797 21.9062ZM39.1797 23.8438C37.2784 23.8438 35.7344 25.3632 35.7344 27.2344C35.7344 29.1055 37.2784 30.625 39.1797 30.625C41.081 30.625 42.625 29.1055 42.625 27.2344C42.625 25.3632 41.081 23.8438 39.1797 23.8438ZM24.7025 53.1068C24.3181 52.729 24.3181 52.1148 24.7025 51.737C25.0864 51.3587 25.7105 51.3587 26.0944 51.737L28.9058 54.5037L29.3866 53.0845C29.4836 52.7977 29.7105 52.5725 30.0009 52.4742C30.2913 52.3763 30.6112 52.417 30.8661 52.5846L33.8193 54.5221C34.2716 54.8186 34.3937 55.4206 34.0924 55.8653C33.7912 56.3104 33.1794 56.4306 32.7276 56.1341L30.8465 54.9004L30.2696 56.603C30.1618 56.9217 29.8941 57.1625 29.5623 57.2395C29.2301 57.317 28.8812 57.2191 28.64 56.9818L24.7025 53.1068ZM36.0863 52.4078C36.3659 52.8665 36.2147 53.4618 35.7486 53.737C35.2825 54.0121 34.6776 53.8634 34.3981 53.4047L32.2891 49.9453L31.6566 50.9828C31.4878 51.2594 31.1905 51.4352 30.8632 51.4517C30.5359 51.4686 30.2219 51.3238 30.025 51.0656L27.0719 47.1906C26.746 46.7629 26.8341 46.155 27.2687 45.8344C27.7034 45.5137 28.321 45.6004 28.6469 46.0281L30.7214 48.7503L31.445 47.5641C31.6226 47.2725 31.9431 47.0938 32.2891 47.0938C32.6351 47.0938 32.9555 47.2725 33.1332 47.5641L36.0863 52.4078ZM34.2042 56.944C34.656 56.6476 35.2678 56.7677 35.569 57.2128C35.8702 57.6575 35.7482 58.2596 35.2958 58.556L33.8193 59.5247C33.3674 59.8212 32.7557 59.7011 32.4544 59.2559C32.1532 58.8113 32.2753 58.2092 32.7276 57.9128L34.2042 56.944ZM38.1658 50.7338C38.2977 51.2526 37.9768 51.7791 37.4496 51.9084C36.9225 52.0383 36.3875 51.7224 36.2561 51.2037L35.7639 49.2662C35.632 48.7474 35.9529 48.2209 36.48 48.0916C37.0072 47.9618 37.5422 48.2776 37.6736 48.7963L38.1658 50.7338ZM34.8007 59.8657C34.9725 59.3581 35.5301 59.084 36.0454 59.253C36.5612 59.4221 36.8398 59.9709 36.6681 60.478L36.1759 61.9311C36.0041 62.4388 35.4464 62.7129 34.9311 62.5439C34.4153 62.3748 34.1367 61.826 34.3085 61.3189L34.8007 59.8657Z" fill="#DDFE71"/>
</svg>
